<?xml version="1.0" encoding="UTF-8" standalone="no"?>
<!DOCTYPE svg PUBLIC "-//W3C//DTD SVG 1.1//EN" "http://www.w3.org/Graphics/SVG/1.1/DTD/svg11.dtd">
<svg width="100%" height="100%" viewBox="0 0 16 16" version="1.1" xmlns="http://www.w3.org/2000/svg" xmlns:xlink="http://www.w3.org/1999/xlink" xml:space="preserve" xmlns:serif="http://www.serif.com/" style="fill-rule:evenodd;clip-rule:evenodd;stroke-linecap:round;stroke-linejoin:round;stroke-miterlimit:1.5;">
    <g transform="matrix(1,0,0,1,-36,-126)">
        <g id="modifiers" transform="matrix(0.666667,0,0,0.666667,36,126)">
            <rect x="0" y="0" width="24" height="24" style="fill:none;"/>
            <clipPath id="_clip1">
                <rect x="0" y="0" width="24" height="24"/>
            </clipPath>
            <g clip-path="url(#_clip1)">
                <g transform="matrix(1.5,0,0,1.5,-54,-189)">
                    <path d="M49.707,126.293C49.317,125.902 48.683,125.902 48.293,126.293L36.293,138.293C35.902,138.683 35.902,139.317 36.293,139.707L38.293,141.707C38.683,142.098 39.317,142.098 39.707,141.707L51.707,129.707C52.098,129.317 52.098,128.683 51.707,128.293L49.707,126.293ZM49,127L51,129L39,141L37,139L49,127Z" style="fill:rgb(20,20,20);"/>
                </g>
                <g transform="matrix(1.5,0,0,1.5,-52.5,-187.5)">
                    <path d="M45.5,128.5L47.5,130.5" style="fill:none;stroke:rgb(20,20,20);stroke-width:1px;"/>
                </g>
                <g transform="matrix(1.5,0,0,1.5,-54,-189)">
                    <path d="M43.5,127.5L43.5,128.5" style="fill:none;stroke:rgb(20,20,20);stroke-width:1px;"/>
                </g>
                <g transform="matrix(0,1.5,-1.5,0,213,-52.5)">
                    <path d="M43.5,127.5L43.5,128.5" style="fill:none;stroke:rgb(20,20,20);stroke-width:1px;"/>
                </g>
                <g transform="matrix(-1.06066,1.06066,-1.06066,-1.06066,200.048,109.27)">
                    <path d="M43.5,127.5L43.5,128.5" style="fill:none;stroke:rgb(20,20,20);stroke-width:1px;"/>
                </g>
                <g transform="matrix(-1.5,0,0,-1.5,76.5,214.5)">
                    <path d="M43.5,127.5L43.5,128.5" style="fill:none;stroke:rgb(20,20,20);stroke-width:1px;"/>
                </g>
                <g transform="matrix(0,-1.5,1.5,0,-190.5,78)">
                    <path d="M43.5,127.5L43.5,128.5" style="fill:none;stroke:rgb(20,20,20);stroke-width:1px;"/>
                </g>
                <g transform="matrix(1.06066,-1.06066,1.06066,1.06066,-177.548,-83.7701)">
                    <path d="M43.5,127.5L43.5,128.5" style="fill:none;stroke:rgb(20,20,20);stroke-width:1px;"/>
                </g>
            </g>
        </g>
    </g>
</svg>
