<?xml version="1.0" encoding="UTF-8" standalone="no"?>
<!DOCTYPE svg PUBLIC "-//W3C//DTD SVG 1.1//EN" "http://www.w3.org/Graphics/SVG/1.1/DTD/svg11.dtd">
<svg width="100%" height="100%" viewBox="0 0 16 16" version="1.1" xmlns="http://www.w3.org/2000/svg" xmlns:xlink="http://www.w3.org/1999/xlink" xml:space="preserve" xmlns:serif="http://www.serif.com/" style="fill-rule:evenodd;clip-rule:evenodd;stroke-linejoin:round;stroke-miterlimit:2;">
    <g transform="matrix(1,0,0,1,-116,-44)">
        <g id="alignhcenter" transform="matrix(0.666667,0,0,0.666667,116,44)">
            <rect x="0" y="0" width="24" height="24" style="fill:none;"/>
            <clipPath id="_clip1">
                <rect x="0" y="0" width="24" height="24"/>
            </clipPath>
            <g clip-path="url(#_clip1)">
                <g transform="matrix(1.22465e-16,2,-2,1.22465e-16,65,-202.5)">
                    <rect x="102" y="28" width="3" height="3" style="fill:rgb(138,146,217);"/>
                    <path d="M105.75,28C105.75,27.586 105.414,27.25 105,27.25L102,27.25C101.586,27.25 101.25,27.586 101.25,28L101.25,31C101.25,31.414 101.586,31.75 102,31.75L105,31.75C105.414,31.75 105.75,31.414 105.75,31L105.75,28ZM105,28L102,28L102,31L105,31L105,28Z" style="fill:rgb(53,41,214);"/>
                </g>
                <g transform="matrix(1.22465e-16,2,-2,1.22465e-16,65,-189)">
                    <rect x="102" y="28" width="3" height="3" style="fill:rgb(138,146,217);"/>
                    <path d="M105.75,28C105.75,27.586 105.414,27.25 105,27.25L102,27.25C101.586,27.25 101.25,27.586 101.25,28L101.25,31C101.25,31.414 101.586,31.75 102,31.75L105,31.75C105.414,31.75 105.75,31.414 105.75,31L105.75,28ZM105,28L102,28L102,31L105,31L105,28Z" style="fill:rgb(53,41,214);"/>
                </g>
                <g transform="matrix(3.06162e-17,0.5,-2,1.22465e-16,77,-36)">
                    <rect x="102" y="28" width="3" height="3" style="fill:rgb(138,146,217);"/>
                    <path d="M108,28C108,27.586 106.657,27.25 105,27.25L102,27.25C100.343,27.25 99,27.586 99,28L99,31C99,31.414 100.343,31.75 102,31.75L105,31.75C106.657,31.75 108,31.414 108,31L108,28ZM105,28L102,28L102,31L105,31L105,28Z" style="fill:rgb(53,41,214);"/>
                </g>
                <g transform="matrix(3.06162e-17,0.5,-2,1.22465e-16,77,-45)">
                    <rect x="102" y="28" width="3" height="3" style="fill:rgb(138,146,217);"/>
                    <path d="M108,28C108,27.586 106.657,27.25 105,27.25L102,27.25C100.343,27.25 99,27.586 99,28L99,31C99,31.414 100.343,31.75 102,31.75L105,31.75C106.657,31.75 108,31.414 108,31L108,28ZM105,28L102,28L102,31L105,31L105,28Z" style="fill:rgb(53,41,214);"/>
                </g>
                <g transform="matrix(9.18485e-17,1.5,-1.5,9.18485e-17,63,-136.5)">
                    <path d="M99,26.5C99,26.367 98.947,26.24 98.854,26.146C98.76,26.053 98.633,26 98.5,26C98.367,26 98.24,26.053 98.146,26.146C98.053,26.24 98,26.367 98,26.5C98,28.888 98,39.112 98,41.5C98,41.633 98.053,41.76 98.146,41.854C98.24,41.947 98.367,42 98.5,42C98.633,42 98.76,41.947 98.854,41.854C98.947,41.76 99,41.633 99,41.5C99,39.112 99,28.888 99,26.5Z" style="fill:rgb(20,20,20);"/>
                </g>
            </g>
        </g>
    </g>
</svg>
