<?xml version="1.0" encoding="UTF-8" standalone="no"?>
<!DOCTYPE svg PUBLIC "-//W3C//DTD SVG 1.1//EN" "http://www.w3.org/Graphics/SVG/1.1/DTD/svg11.dtd">
<svg width="100%" height="100%" viewBox="0 0 16 16" version="1.1" xmlns="http://www.w3.org/2000/svg" xmlns:xlink="http://www.w3.org/1999/xlink" xml:space="preserve" xmlns:serif="http://www.serif.com/" style="fill-rule:evenodd;clip-rule:evenodd;stroke-linejoin:round;stroke-miterlimit:2;">
    <g transform="matrix(1,0,0,1,-126,-18)">
        <g id="alignbottom" transform="matrix(0.666667,0,0,0.666667,126,18)">
            <rect x="0" y="0" width="24" height="24" style="fill:none;"/>
            <clipPath id="_clip1">
                <rect x="0" y="0" width="24" height="24"/>
            </clipPath>
            <g clip-path="url(#_clip1)">
                <g transform="matrix(-9.18485e-17,-1.5,1.5,-9.18485e-17,-39,171)">
                    <path d="M99,26.5C99,26.367 98.947,26.24 98.854,26.146C98.76,26.053 98.633,26 98.5,26C98.367,26 98.24,26.053 98.146,26.146C98.053,26.24 98,26.367 98,26.5C98,28.888 98,39.112 98,41.5C98,41.633 98.053,41.76 98.146,41.854C98.24,41.947 98.367,42 98.5,42C98.633,42 98.76,41.947 98.854,41.854C98.947,41.76 99,41.633 99,41.5C99,39.112 99,28.888 99,26.5Z" style="fill:rgb(20,20,20);"/>
                </g>
                <g transform="matrix(-2.14313e-16,-3.5,2,-1.22465e-16,-53,376.5)">
                    <rect x="102" y="28" width="3" height="3" style="fill:rgb(205,139,227);"/>
                    <path d="M105.429,28C105.429,27.586 105.237,27.25 105,27.25L102,27.25C101.763,27.25 101.571,27.586 101.571,28L101.571,31C101.571,31.414 101.763,31.75 102,31.75L105,31.75C105.237,31.75 105.429,31.414 105.429,31L105.429,28ZM105,28L102,28L102,31L105,31L105,28Z" style="fill:rgb(86,14,119);"/>
                </g>
                <g transform="matrix(-3.67394e-16,-6,2,-1.22465e-16,-41,631.5)">
                    <rect x="102" y="28" width="3" height="3" style="fill:rgb(205,139,227);"/>
                    <path d="M105.25,28C105.25,27.586 105.138,27.25 105,27.25L102,27.25C101.862,27.25 101.75,27.586 101.75,28L101.75,31C101.75,31.414 101.862,31.75 102,31.75L105,31.75C105.138,31.75 105.25,31.414 105.25,31L105.25,28ZM105,28L102,28L102,31L105,31L105,28Z" style="fill:rgb(86,14,119);"/>
                </g>
            </g>
        </g>
    </g>
</svg>
