<?xml version="1.0" encoding="UTF-8" standalone="no"?>
<!DOCTYPE svg PUBLIC "-//W3C//DTD SVG 1.1//EN" "http://www.w3.org/Graphics/SVG/1.1/DTD/svg11.dtd">
<svg width="100%" height="100%" viewBox="0 0 24 24" version="1.1" xmlns="http://www.w3.org/2000/svg" xmlns:xlink="http://www.w3.org/1999/xlink" xml:space="preserve" xmlns:serif="http://www.serif.com/" style="fill-rule:evenodd;clip-rule:evenodd;stroke-linejoin:round;stroke-miterlimit:2;">
    <g transform="matrix(1,0,0,1,-98,-26)">
        <g id="alignleft" transform="matrix(1,0,0,1,98,26)">
            <rect x="0" y="0" width="24" height="24" style="fill:none;"/>
            <clipPath id="_clip1">
                <rect x="0" y="0" width="24" height="24"/>
            </clipPath>
            <g clip-path="url(#_clip1)">
                <g transform="matrix(1,0,0,1,-100,-26)">
                    <path d="M102,27C102,26.735 101.895,26.48 101.707,26.293C101.52,26.105 101.265,26 101,26C100.448,26 100,26.448 100,27L100,49C100,49.265 100.105,49.52 100.293,49.707C100.48,49.895 100.735,50 101,50C101.552,50 102,49.552 102,49L102,27Z"/>
                </g>
                <g transform="matrix(1,0,0,0.818182,-98,-18.9091)">
                    <path d="M122,40.222C122,39.898 121.895,39.587 121.707,39.358C121.52,39.129 121.265,39 121,39C117.586,39 106.414,39 103,39C102.735,39 102.48,39.129 102.293,39.358C102.105,39.587 102,39.898 102,40.222C102,42.339 102,46.661 102,48.778C102,49.102 102.105,49.413 102.293,49.642C102.48,49.871 102.735,50 103,50C106.414,50 117.586,50 121,50C121.265,50 121.52,49.871 121.707,49.642C121.895,49.413 122,49.102 122,48.778C122,46.661 122,42.339 122,40.222Z"/>
                </g>
                <g transform="matrix(0.6,0,0,0.818182,-57.2,-29.9091)">
                    <path d="M122,40.222C122,39.898 121.824,39.587 121.512,39.358C121.199,39.129 120.775,39 120.333,39C116.567,39 107.433,39 103.667,39C103.225,39 102.801,39.129 102.488,39.358C102.176,39.587 102,39.898 102,40.222C102,42.339 102,46.661 102,48.778C102,49.102 102.176,49.413 102.488,49.642C102.801,49.871 103.225,50 103.667,50C107.433,50 116.567,50 120.333,50C120.775,50 121.199,49.871 121.512,49.642C121.824,49.413 122,49.102 122,48.778C122,46.661 122,42.339 122,40.222Z"/>
                </g>
            </g>
        </g>
    </g>
</svg>
