<?xml version="1.0" encoding="UTF-8" standalone="no"?>
<!DOCTYPE svg PUBLIC "-//W3C//DTD SVG 1.1//EN" "http://www.w3.org/Graphics/SVG/1.1/DTD/svg11.dtd">
<svg width="100%" height="100%" viewBox="0 0 24 24" version="1.1" xmlns="http://www.w3.org/2000/svg" xmlns:xlink="http://www.w3.org/1999/xlink" xml:space="preserve" xmlns:serif="http://www.serif.com/" style="fill-rule:evenodd;clip-rule:evenodd;stroke-linejoin:round;stroke-miterlimit:2;">
    <g transform="matrix(1,0,0,1,-98,-52)">
        <g id="alignvcenter" transform="matrix(1,0,0,1,98,52)">
            <rect x="0" y="0" width="24" height="24" style="fill:none;"/>
            <clipPath id="_clip1">
                <rect x="0" y="0" width="24" height="24"/>
            </clipPath>
            <g clip-path="url(#_clip1)">
                <g transform="matrix(1,0,0,1,-89,-26)">
                    <path d="M102,27C102,26.735 101.895,26.48 101.707,26.293C101.52,26.105 101.265,26 101,26C100.448,26 100,26.448 100,27L100,49C100,49.265 100.105,49.52 100.293,49.707C100.48,49.895 100.735,50 101,50C101.552,50 102,49.552 102,49L102,27Z"/>
                </g>
                <g transform="matrix(0.45,0,0,0.818182,-45.9,-18.9091)">
                    <path d="M122,39L104.222,39C103.633,39 103.068,39.129 102.651,39.358C102.234,39.587 102,39.898 102,40.222L102,48.778C102,49.102 102.234,49.413 102.651,49.642C103.068,49.871 103.633,50 104.222,50L122,50L122,39Z"/>
                </g>
                <g transform="matrix(-0.45,-5.51091e-17,1.00198e-16,-0.818182,69.9,53.9091)">
                    <path d="M122,39L104.222,39C103.633,39 103.068,39.129 102.651,39.358C102.234,39.587 102,39.898 102,40.222L102,48.778C102,49.102 102.234,49.413 102.651,49.642C103.068,49.871 103.633,50 104.222,50L122,50L122,39Z"/>
                </g>
                <g transform="matrix(0.25,0,0,0.818182,-21.5,-29.9091)">
                    <path d="M122,39L106,39C104.939,39 103.922,39.129 103.172,39.358C102.421,39.587 102,39.898 102,40.222C102,42.339 102,46.661 102,48.778C102,49.102 102.421,49.413 103.172,49.642C103.922,49.871 104.939,50 106,50C111.837,50 122,50 122,50L122,39Z"/>
                </g>
                <g transform="matrix(-0.25,-3.06162e-17,1.00198e-16,-0.818182,45.5,42.9091)">
                    <path d="M122,39L106,39C104.939,39 103.922,39.129 103.172,39.358C102.421,39.587 102,39.898 102,40.222C102,42.339 102,46.661 102,48.778C102,49.102 102.421,49.413 103.172,49.642C103.922,49.871 104.939,50 106,50C111.837,50 122,50 122,50L122,39Z"/>
                </g>
            </g>
        </g>
    </g>
</svg>
