<?xml version="1.0" encoding="UTF-8" standalone="no"?>
<!DOCTYPE svg PUBLIC "-//W3C//DTD SVG 1.1//EN" "http://www.w3.org/Graphics/SVG/1.1/DTD/svg11.dtd">
<svg width="100%" height="100%" viewBox="0 0 16 16" version="1.1" xmlns="http://www.w3.org/2000/svg" xmlns:xlink="http://www.w3.org/1999/xlink" xml:space="preserve" xmlns:serif="http://www.serif.com/" style="fill-rule:evenodd;clip-rule:evenodd;stroke-linejoin:round;stroke-miterlimit:2;">
    <g transform="matrix(1,0,0,1,-18,-90)">
        <g id="allsel" transform="matrix(0.666667,0,0,0.666667,18,90)">
            <rect x="0" y="0" width="24" height="24" style="fill:none;"/>
            <clipPath id="_clip1">
                <rect x="0" y="0" width="24" height="24"/>
            </clipPath>
            <g clip-path="url(#_clip1)">
                <g transform="matrix(1.5,0,0,1.5,0,-135)">
                    <rect x="1" y="102" width="3" height="3" style="fill:rgb(230,239,63);"/>
                    <path d="M5,102C5,101.448 4.552,101 4,101L1,101C0.448,101 0,101.448 0,102L0,105C0,105.552 0.448,106 1,106L4,106C4.552,106 5,105.552 5,105L5,102ZM4,102L1,102L1,105L4,105L4,102Z" style="fill:rgb(227,135,18);"/>
                </g>
                <g transform="matrix(1.5,0,0,1.5,0,-144)">
                    <rect x="1" y="102" width="3" height="3" style="fill:rgb(230,239,63);"/>
                    <path d="M5,102C5,101.448 4.552,101 4,101L1,101C0.448,101 0,101.448 0,102L0,105C0,105.552 0.448,106 1,106L4,106C4.552,106 5,105.552 5,105L5,102ZM4,102L1,102L1,105L4,105L4,102Z" style="fill:rgb(227,135,18);"/>
                </g>
                <g transform="matrix(1.5,0,0,1.5,9,-135)">
                    <rect x="1" y="102" width="3" height="3" style="fill:rgb(230,239,63);"/>
                    <path d="M5,102C5,101.448 4.552,101 4,101L1,101C0.448,101 0,101.448 0,102L0,105C0,105.552 0.448,106 1,106L4,106C4.552,106 5,105.552 5,105L5,102ZM4,102L1,102L1,105L4,105L4,102Z" style="fill:rgb(227,135,18);"/>
                </g>
                <g transform="matrix(1.5,0,0,1.5,16.5,-151.5)">
                    <rect x="1" y="102" width="3" height="3" style="fill:rgb(230,239,63);"/>
                    <path d="M5,102C5,101.448 4.552,101 4,101L1,101C0.448,101 -0,101.448 0,102L0,105C0,105.552 0.448,106 1,106L4,106C4.552,106 5,105.552 5,105L5,102ZM4,102L1,102L1,105L4,105L4,102Z" style="fill:rgb(227,135,18);"/>
                </g>
                <g transform="matrix(1.5,0,0,1.5,7.5,-151.5)">
                    <rect x="1" y="102" width="3" height="3" style="fill:rgb(230,239,63);"/>
                    <path d="M5,102C5,101.448 4.552,101 4,101L1,101C0.448,101 -0,101.448 0,102L0,105C0,105.552 0.448,106 1,106L4,106C4.552,106 5,105.552 5,105L5,102ZM4,102L1,102L1,105L4,105L4,102Z" style="fill:rgb(227,135,18);"/>
                </g>
                <g transform="matrix(1.5,0,0,1.5,16.5,-142.5)">
                    <rect x="1" y="102" width="3" height="3" style="fill:rgb(230,239,63);"/>
                    <path d="M5,102C5,101.448 4.552,101 4,101L1,101C0.448,101 -0,101.448 0,102L0,105C0,105.552 0.448,106 1,106L4,106C4.552,106 5,105.552 5,105L5,102ZM4,102L1,102L1,105L4,105L4,102Z" style="fill:rgb(227,135,18);"/>
                </g>
            </g>
        </g>
    </g>
</svg>
