<?xml version="1.0" encoding="UTF-8" standalone="no"?>
<!DOCTYPE svg PUBLIC "-//W3C//DTD SVG 1.1//EN" "http://www.w3.org/Graphics/SVG/1.1/DTD/svg11.dtd">
<svg width="100%" height="100%" viewBox="0 0 16 16" version="1.1" xmlns="http://www.w3.org/2000/svg" xmlns:xlink="http://www.w3.org/1999/xlink" xml:space="preserve" xmlns:serif="http://www.serif.com/" style="fill-rule:evenodd;clip-rule:evenodd;stroke-linecap:round;stroke-linejoin:round;stroke-miterlimit:1.5;">
    <g transform="matrix(1,0,0,1,-18,0)">
        <g id="beziertool" transform="matrix(0.666667,0,0,0.666667,18,4.44089e-16)">
            <rect x="0" y="0" width="24" height="24" style="fill:none;"/>
            <clipPath id="_clip1">
                <rect x="0" y="0" width="24" height="24"/>
            </clipPath>
            <g clip-path="url(#_clip1)">
                <g transform="matrix(1.5,0,0,1.5,-25.5,1.5)">
                    <path d="M32.5,-0.5C32.5,-0.5 31.381,7.59 28.5,10.5C25.619,13.41 17.5,14.5 17.5,14.5" style="fill:none;stroke:rgb(20,20,20);stroke-width:1px;"/>
                </g>
                <g transform="matrix(1.5,0,0,1.5,13.5,13.5)">
                    <rect x="1" y="1" width="3" height="3" style="fill:rgb(189,189,189);"/>
                    <path d="M5,1C5,0.448 4.552,0 4,0L1,0C0.448,0 -0,0.448 0,1L0,4C0,4.552 0.448,5 1,5L4,5C4.552,5 5,4.552 5,4L5,1ZM4,1L1,1L1,4L4,4L4,1Z" style="fill:rgb(20,20,20);"/>
                </g>
                <g transform="matrix(1.5,0,0,1.5,-27,4.44089e-16)">
                    <path d="M19,3L21,1L26,1L29,11L19,9.166L19,3Z" style="fill:rgb(223,147,172);"/>
                    <path d="M18.293,2.293C18.105,2.48 18,2.735 18,3L18,9.166C18,9.649 18.345,10.063 18.82,10.15L28.82,11.984C29.162,12.046 29.513,11.927 29.745,11.667C29.977,11.408 30.058,11.046 29.958,10.713L26.958,0.713C26.831,0.29 26.442,-0 26,-0L21,0C20.735,0 20.48,0.105 20.293,0.293L18.293,2.293ZM19,3L21,1L26,1L29,11L19,9.166L19,3Z" style="fill:rgb(117,25,53);"/>
                </g>
                <g transform="matrix(1.5,0,0,1.5,-27,4.44089e-16)">
                    <circle cx="24" cy="6" r="1" style="fill:rgb(117,25,53);"/>
                </g>
                <g transform="matrix(1.5,0,0,1.5,-27,4.44089e-16)">
                    <path d="M29,11L24.5,6.5" style="fill:none;stroke:rgb(117,25,53);stroke-width:1px;"/>
                </g>
            </g>
        </g>
    </g>
</svg>
