<?xml version="1.0" encoding="UTF-8" standalone="no"?>
<!DOCTYPE svg PUBLIC "-//W3C//DTD SVG 1.1//EN" "http://www.w3.org/Graphics/SVG/1.1/DTD/svg11.dtd">
<svg width="100%" height="100%" viewBox="0 0 16 16" version="1.1" xmlns="http://www.w3.org/2000/svg" xmlns:xlink="http://www.w3.org/1999/xlink" xml:space="preserve" xmlns:serif="http://www.serif.com/" style="fill-rule:evenodd;clip-rule:evenodd;stroke-linecap:round;stroke-linejoin:round;stroke-miterlimit:1.5;">
    <g transform="matrix(1,0,0,1,-18,0)">
        <g id="beziertool" transform="matrix(0.666667,0,0,0.666667,18,4.44089e-16)">
            <rect x="0" y="0" width="24" height="24" style="fill:none;"/>
            <clipPath id="_clip1">
                <rect x="0" y="0" width="24" height="24"/>
            </clipPath>
            <g clip-path="url(#_clip1)">
                <g transform="matrix(2.1,0,0,2.1,-38.4,-0.6)">
                    <path d="M19,3.857L21.857,1L26.857,2.429L29,11L20.429,8.857L19,3.857Z" style="fill:rgb(244,172,187);"/>
                    <path d="M18.495,3.352C18.311,3.535 18.242,3.804 18.313,4.053L19.742,9.053C19.812,9.299 20.008,9.488 20.255,9.55L28.827,11.693C29.07,11.754 29.328,11.682 29.505,11.505C29.682,11.328 29.754,11.07 29.693,10.827L27.55,2.255C27.488,2.008 27.299,1.812 27.053,1.742L22.053,0.313C21.804,0.242 21.535,0.311 21.352,0.495L18.495,3.352ZM19,3.857L21.857,1L26.857,2.429L29,11L20.429,8.857L19,3.857Z" style="fill:rgb(105,0,41);"/>
                </g>
                <g transform="matrix(2.33333,0,0,2.33333,-45.1667,-3.16667)">
                    <path d="M29,11L23.857,5.857" style="fill:none;stroke:rgb(105,0,41);stroke-width:0.64px;"/>
                </g>
            </g>
        </g>
    </g>
</svg>
