<?xml version="1.0" encoding="UTF-8" standalone="no"?>
<!DOCTYPE svg PUBLIC "-//W3C//DTD SVG 1.1//EN" "http://www.w3.org/Graphics/SVG/1.1/DTD/svg11.dtd">
<svg width="100%" height="100%" viewBox="0 0 24 24" version="1.1" xmlns="http://www.w3.org/2000/svg" xmlns:xlink="http://www.w3.org/1999/xlink" xml:space="preserve" xmlns:serif="http://www.serif.com/" style="fill-rule:evenodd;clip-rule:evenodd;stroke-linejoin:round;stroke-miterlimit:2;">
    <g transform="matrix(1,0,0,1,-24,0)">
        <g id="beziertool" transform="matrix(1,0,0,1,24,0)">
            <rect x="0" y="0" width="24" height="24" style="fill:none;"/>
            <clipPath id="_clip1">
                <rect x="0" y="0" width="24" height="24"/>
            </clipPath>
            <g clip-path="url(#_clip1)">
                <g transform="matrix(1,0,0,1,-24,0)">
                    <path d="M40.699,8.03C44.788,8.385 48,11.82 48,16C48,20.415 44.415,24 40,24C35.82,24 32.385,20.788 32.03,16.699L34.091,17.043C34.585,19.858 37.044,22 40,22C43.311,22 46,19.311 46,16C46,13.044 43.858,10.585 41.043,10.091L40.699,8.03Z"/>
                </g>
                <g transform="matrix(1,0,0,1,-24,0)">
                    <path d="M40.518,17.932C40.245,18.005 39.957,18.02 39.671,17.973L27.671,15.973C26.852,15.836 26.202,15.207 26.039,14.392L24.039,4.392C23.908,3.736 24.113,3.059 24.586,2.586L26.586,0.586C27.059,0.113 27.736,-0.092 28.392,0.039L38.392,2.039C39.207,2.202 39.836,2.852 39.973,3.671L41.973,15.671C42.02,15.957 42.005,16.245 41.932,16.518L32.707,7.293C32.317,6.903 31.683,6.903 31.293,7.293C30.903,7.683 30.903,8.317 31.293,8.707L40.518,17.932Z"/>
                </g>
                <g transform="matrix(1,0,0,1,-24,0)">
                    <path d="M43,1C43,3.797 43.004,6.727 42.375,9.442C42.25,9.979 42.585,10.517 43.123,10.642C43.661,10.766 44.198,10.431 44.323,9.893C44.986,7.033 45,3.947 45,1C45,0.448 44.552,0 44,0C43.448,0 43,0.448 43,1Z"/>
                </g>
                <g transform="matrix(1,0,0,1,-24,0)">
                    <path d="M33.59,18.28C30.64,19.003 27.506,19 25,19C24.448,19 24,19.448 24,20C24,20.552 24.448,21 25,21C27.645,21 30.953,20.986 34.066,20.222C34.602,20.091 34.931,19.549 34.799,19.013C34.668,18.477 34.126,18.148 33.59,18.28Z"/>
                </g>
            </g>
        </g>
    </g>
</svg>
