<?xml version="1.0" encoding="UTF-8" standalone="no"?>
<!DOCTYPE svg PUBLIC "-//W3C//DTD SVG 1.1//EN" "http://www.w3.org/Graphics/SVG/1.1/DTD/svg11.dtd">
<svg width="100%" height="100%" viewBox="0 0 16 16" version="1.1" xmlns="http://www.w3.org/2000/svg" xmlns:xlink="http://www.w3.org/1999/xlink" xml:space="preserve" xmlns:serif="http://www.serif.com/" style="fill-rule:evenodd;clip-rule:evenodd;stroke-linecap:round;stroke-linejoin:round;stroke-miterlimit:1.5;">
    <g transform="matrix(1,0,0,1,-18,0)">
        <g id="beziertool" transform="matrix(0.666667,0,0,0.666667,18,4.44089e-16)">
            <rect x="0" y="0" width="24" height="24" style="fill:none;"/>
            <clipPath id="_clip1">
                <rect x="0" y="0" width="24" height="24"/>
            </clipPath>
            <g clip-path="url(#_clip1)">
                <g transform="matrix(1.3125,0,0,1.3125,-20.8125,2.8125)">
                    <path d="M29,5.857C26.162,5.857 23.857,8.162 23.857,11C23.857,13.838 26.162,16.143 29,16.143C31.838,16.143 34.143,13.838 34.143,11C34.143,8.162 31.838,5.857 29,5.857ZM29,7C31.208,7 33,8.792 33,11C33,13.208 31.208,15 29,15C26.792,15 25,13.208 25,11C25,8.792 26.792,7 29,7Z" style="fill:rgb(20,20,20);"/>
                </g>
                <g transform="matrix(1.5,3.67394e-16,-3.67394e-16,1.5,-27,3.55271e-15)">
                    <path d="M32.5,0.5C32.5,3.612 31.966,6.077 31.298,7.927" style="fill:none;stroke:rgb(20,20,20);stroke-width:1px;"/>
                </g>
                <g transform="matrix(4.59243e-16,1.5,1.5,-4.59243e-16,-2.77556e-14,-27)">
                    <path d="M32.5,0.5C32.5,3.612 31.966,6.077 31.298,7.927" style="fill:none;stroke:rgb(20,20,20);stroke-width:1px;"/>
                </g>
                <g transform="matrix(1.5,0,0,1.5,-27,-6.66134e-16)">
                    <path d="M19,3L21,1L27,3L29,11L21,9L19,3Z" style="fill:rgb(138,146,217);"/>
                    <path d="M18.293,2.293C18.025,2.561 17.932,2.957 18.051,3.316L20.051,9.316C20.159,9.641 20.426,9.887 20.757,9.97L28.757,11.97C29.098,12.055 29.459,11.955 29.707,11.707C29.955,11.459 30.055,11.098 29.97,10.757L27.97,2.757C27.887,2.426 27.641,2.159 27.316,2.051L21.316,0.051C20.957,-0.068 20.561,0.025 20.293,0.293L18.293,2.293ZM19,3L21,1L27,3L29,11L21,9L19,3Z" style="fill:rgb(53,41,214);"/>
                </g>
                <g transform="matrix(1.5,0,0,1.5,-27,-6.66134e-16)">
                    <circle cx="24" cy="6" r="1" style="fill:rgb(53,41,214);"/>
                </g>
                <g transform="matrix(1.5,0,0,1.5,-27,-6.66134e-16)">
                    <path d="M29,11L24.5,6.5" style="fill:none;stroke:rgb(53,41,214);stroke-width:1px;"/>
                </g>
            </g>
        </g>
    </g>
</svg>
