<?xml version="1.0" encoding="UTF-8" standalone="no"?>
<!DOCTYPE svg PUBLIC "-//W3C//DTD SVG 1.1//EN" "http://www.w3.org/Graphics/SVG/1.1/DTD/svg11.dtd">
<svg width="100%" height="100%" viewBox="0 0 16 16" version="1.1" xmlns="http://www.w3.org/2000/svg" xmlns:xlink="http://www.w3.org/1999/xlink" xml:space="preserve" xmlns:serif="http://www.serif.com/" style="fill-rule:evenodd;clip-rule:evenodd;stroke-linecap:round;stroke-linejoin:round;stroke-miterlimit:1.5;">
    <g transform="matrix(1,0,0,1,-18,0)">
        <g id="beziertool" transform="matrix(0.666667,0,0,0.666667,18,4.44089e-16)">
            <rect x="0" y="0" width="24" height="24" style="fill:none;"/>
            <g transform="matrix(1.5,0,0,1.5,-25.5,1.5)">
                <path d="M31.5,-0.5C31.5,-0.5 32.381,8.59 29.5,11.5C26.619,14.41 17.5,13.5 17.5,13.5" style="fill:none;stroke:rgb(20,20,20);stroke-width:1px;"/>
            </g>
            <g transform="matrix(1.5,0,0,1.5,15,15)">
                <rect x="1" y="1" width="3" height="3" style="fill:rgb(189,189,189);"/>
                <path d="M5,1C5,0.448 4.552,0 4,0L1,0C0.448,0 0,0.448 0,1L0,4C0,4.552 0.448,5 1,5L4,5C4.552,5 5,4.552 5,4L5,1ZM4,1L1,1L1,4L4,4L4,1Z" style="fill:rgb(20,20,20);"/>
            </g>
            <g transform="matrix(1.5,0,0,1.5,-25.5,1.5)">
                <path d="M19,3L21,1L27,3L29,11L21,9L19,3Z" style="fill:rgb(223,147,172);"/>
                <path d="M18.293,2.293C18.025,2.561 17.932,2.957 18.051,3.316L20.051,9.316C20.159,9.641 20.426,9.887 20.757,9.97L28.757,11.97C29.098,12.055 29.459,11.955 29.707,11.707C29.955,11.459 30.055,11.098 29.97,10.757L27.97,2.757C27.887,2.426 27.641,2.159 27.316,2.051L21.316,0.051C20.957,-0.068 20.561,0.025 20.293,0.293L18.293,2.293ZM19,3L21,1L27,3L29,11L21,9L19,3Z" style="fill:rgb(117,25,53);"/>
            </g>
            <g transform="matrix(1.5,0,0,1.5,-25.5,1.5)">
                <circle cx="24" cy="6" r="1" style="fill:rgb(117,25,53);"/>
            </g>
            <g transform="matrix(1.5,0,0,1.5,-25.5,1.5)">
                <path d="M29,11L24.5,6.5" style="fill:none;stroke:rgb(117,25,53);stroke-width:1px;"/>
            </g>
        </g>
    </g>
</svg>
