<?xml version="1.0" encoding="UTF-8" standalone="no"?>
<!DOCTYPE svg PUBLIC "-//W3C//DTD SVG 1.1//EN" "http://www.w3.org/Graphics/SVG/1.1/DTD/svg11.dtd">
<svg width="100%" height="100%" viewBox="0 0 16 16" version="1.1" xmlns="http://www.w3.org/2000/svg" xmlns:xlink="http://www.w3.org/1999/xlink" xml:space="preserve" xmlns:serif="http://www.serif.com/" style="fill-rule:evenodd;clip-rule:evenodd;stroke-linejoin:round;stroke-miterlimit:2;">
    <g transform="matrix(1,0,0,1,-108,-36)">
        <g id="copy" transform="matrix(0.666667,0,0,0.666667,108,36)">
            <rect x="0" y="0" width="24" height="24" style="fill:none;"/>
            <g transform="matrix(1.3125,0,0,1.375,-138.563,-47.625)">
                <path d="M118.143,43.364C118.143,43.074 118.022,42.797 117.808,42.592L113.237,38.229C113.022,38.024 112.732,37.909 112.429,37.909L109,37.909C108.369,37.909 107.857,38.398 107.857,39L107.857,51C107.857,51.602 108.369,52.091 109,52.091L117,52.091C117.631,52.091 118.143,51.602 118.143,51L118.143,43.364ZM117,43.364L112.429,39L109,39L109,51L117,51L117,43.364Z" style="fill:rgb(20,20,20);"/>
            </g>
            <g transform="matrix(1.5,0,0,1.5,-162,-54)">
                <path d="M113,40L113,37C113,36.448 113.448,36 114,36L117,36C117.265,36 117.52,36.105 117.707,36.293L121.707,40.293C121.895,40.48 122,40.735 122,41L122,48C122,48.552 121.552,49 121,49L118,49L118,48L121,48L121,41L117,37L114,37L114,40L113,40Z" style="fill:rgb(20,20,20);"/>
            </g>
        </g>
    </g>
</svg>
