<?xml version="1.0" encoding="UTF-8" standalone="no"?>
<!DOCTYPE svg PUBLIC "-//W3C//DTD SVG 1.1//EN" "http://www.w3.org/Graphics/SVG/1.1/DTD/svg11.dtd">
<svg width="100%" height="100%" viewBox="0 0 16 16" version="1.1" xmlns="http://www.w3.org/2000/svg" xmlns:xlink="http://www.w3.org/1999/xlink" xml:space="preserve" xmlns:serif="http://www.serif.com/" style="fill-rule:evenodd;clip-rule:evenodd;stroke-linejoin:round;stroke-miterlimit:2;">
    <g transform="matrix(1,0,0,1,-36,-90)">
        <g id="curvesel" transform="matrix(0.666667,0,0,0.666667,36,90)">
            <rect x="0" y="0" width="24" height="24" style="fill:none;"/>
            <clipPath id="_clip1">
                <rect x="0" y="0" width="24" height="24"/>
            </clipPath>
            <g clip-path="url(#_clip1)">
                <g transform="matrix(1.5,0,0,1.5,-54,-133.5)">
                    <path d="M38.016,96.82C37.653,98.808 37.524,100.208 37.666,101.158C37.802,102.067 38.171,102.666 38.719,103.06C39.211,103.415 39.891,103.611 40.817,103.609C41.856,103.607 43.289,103.359 45.194,102.981C48.268,102.372 49.954,100.979 50.512,99.311C51.069,97.643 50.534,95.549 48.778,93.372C47.053,91.234 45.093,90.636 43.339,90.935C40.784,91.37 38.557,93.857 38.016,96.82ZM39,97C39.771,92.774 44.418,89.56 48,94C50.971,97.682 50.199,100.969 45,102C38.928,103.204 37.882,103.127 39,97Z" style="fill:rgb(189,189,189);"/>
                </g>
                <g transform="matrix(1.5,0,0,1.5,0,-135)">
                    <rect x="1" y="102" width="3" height="3" style="fill:rgb(230,239,63);"/>
                    <path d="M5,102C5,101.448 4.552,101 4,101L1,101C0.448,101 0,101.448 0,102L0,105C0,105.552 0.448,106 1,106L4,106C4.552,106 5,105.552 5,105L5,102ZM4,102L1,102L1,105L4,105L4,102Z" style="fill:rgb(227,135,18);"/>
                </g>
                <g transform="matrix(1.5,0,0,1.5,7.5,-151.5)">
                    <rect x="1" y="102" width="3" height="3" style="fill:rgb(230,239,63);"/>
                    <path d="M5,102C5,101.448 4.552,101 4,101L1,101C0.448,101 0,101.448 0,102L0,105C0,105.552 0.448,106 1,106L4,106C4.552,106 5,105.552 5,105L5,102ZM4,102L1,102L1,105L4,105L4,102Z" style="fill:rgb(227,135,18);"/>
                </g>
                <g transform="matrix(1.5,0,0,1.5,16.5,-138)">
                    <rect x="1" y="102" width="3" height="3" style="fill:rgb(230,239,63);"/>
                    <path d="M5,102C5,101.448 4.552,101 4,101L1,101C0.448,101 -0,101.448 0,102L0,105C0,105.552 0.448,106 1,106L4,106C4.552,106 5,105.552 5,105L5,102ZM4,102L1,102L1,105L4,105L4,102Z" style="fill:rgb(227,135,18);"/>
                </g>
            </g>
        </g>
    </g>
</svg>
