<?xml version="1.0" encoding="UTF-8" standalone="no"?>
<!DOCTYPE svg PUBLIC "-//W3C//DTD SVG 1.1//EN" "http://www.w3.org/Graphics/SVG/1.1/DTD/svg11.dtd">
<svg width="100%" height="100%" viewBox="0 0 16 16" version="1.1" xmlns="http://www.w3.org/2000/svg" xmlns:xlink="http://www.w3.org/1999/xlink" xml:space="preserve" xmlns:serif="http://www.serif.com/" style="fill-rule:evenodd;clip-rule:evenodd;stroke-linecap:round;stroke-linejoin:round;stroke-miterlimit:1.5;">
    <g transform="matrix(1,0,0,1,-18,-54)">
        <g id="curvesnap" transform="matrix(0.666667,0,0,0.666667,18,54)">
            <rect x="0" y="0" width="24" height="24" style="fill:none;"/>
            <clipPath id="_clip1">
                <rect x="0" y="0" width="24" height="24"/>
            </clipPath>
            <g clip-path="url(#_clip1)">
                <g transform="matrix(1.5,0,0,1.5,-27,-103.5)">
                    <path d="M18.5,72.5C25.37,66.086 37.787,70.911 25.5,77.5C13.653,83.854 22.089,85.878 33.5,83.5" style="fill:none;stroke:rgb(20,20,20);stroke-width:1px;"/>
                </g>
                <g transform="matrix(1.5,0,0,1.5,-27,-103.5)">
                    <path d="M25,83.5L25,71.5C25,71.224 25.224,71 25.5,71C25.776,71 26,71.224 26,71.5L26,83.5C26,83.776 25.776,84 25.5,84C25.224,84 25,83.776 25,83.5Z" style="fill:rgb(0,99,40);"/>
                </g>
                <g transform="matrix(9.18485e-17,1.5,-1.5,9.18485e-17,127.5,-25.5)">
                    <path d="M25,83.5L25,71.5C25,71.224 25.224,71 25.5,71C25.776,71 26,71.224 26,71.5L26,83.5C26,83.776 25.776,84 25.5,84C25.224,84 25,83.776 25,83.5Z" style="fill:rgb(0,99,40);"/>
                </g>
                <g transform="matrix(1.5,0,0,1.5,-24,-106.5)">
                    <path d="M25,79.498C25,79.101 24.842,78.72 24.561,78.439C24.28,78.158 23.899,78 23.502,78L23.5,78C22.672,78 22,78.672 22,79.5C22,80.328 22.672,81 23.5,81L23.502,81C23.899,81 24.28,80.842 24.561,80.561C24.842,80.28 25,79.899 25,79.502L25,79.498Z" style="fill:rgb(144,231,130);"/>
                    <path d="M26,79.498C26,78.835 25.737,78.2 25.268,77.732C24.8,77.263 24.165,77 23.502,77L23.5,77C22.119,77 21,78.119 21,79.5L22,79.5C22,79.5 21,79.5 21,79.5C21,80.881 22.119,82 23.5,82L23.502,82C24.165,82 24.8,81.737 25.268,81.268C25.737,80.8 26,80.165 26,79.502L26,79.498ZM25,79.498C25,79.101 24.842,78.72 24.561,78.439C24.28,78.158 23.899,78 23.502,78L23.5,78C22.672,78 22,78.672 22,79.5C22,80.328 22.672,81 23.5,81L23.502,81C23.899,81 24.28,80.842 24.561,80.561C24.842,80.28 25,79.899 25,79.502L25,79.498Z" style="fill:rgb(0,99,40);"/>
                </g>
            </g>
        </g>
    </g>
</svg>
