<?xml version="1.0" encoding="UTF-8" standalone="no"?>
<!DOCTYPE svg PUBLIC "-//W3C//DTD SVG 1.1//EN" "http://www.w3.org/Graphics/SVG/1.1/DTD/svg11.dtd">
<svg width="100%" height="100%" viewBox="0 0 16 16" version="1.1" xmlns="http://www.w3.org/2000/svg" xmlns:xlink="http://www.w3.org/1999/xlink" xml:space="preserve" xmlns:serif="http://www.serif.com/" style="fill-rule:evenodd;clip-rule:evenodd;stroke-linejoin:round;stroke-miterlimit:2;">
    <g transform="matrix(1,0,0,1,-90,-36)">
        <g id="cut" transform="matrix(0.666667,0,0,0.666667,90,36)">
            <rect x="0" y="0" width="24" height="24" style="fill:none;"/>
            <clipPath id="_clip1">
                <rect x="0" y="0" width="24" height="24"/>
            </clipPath>
            <g clip-path="url(#_clip1)">
                <g transform="matrix(1.5,0,0,1.5,-135,-57)">
                    <path d="M92.5,41C91.12,41 90,42.12 90,43.5C90,44.88 91.12,46 92.5,46C93.88,46 95,44.88 95,43.5C95,42.12 93.88,41 92.5,41ZM92.5,42C93.328,42 94,42.672 94,43.5C94,44.328 93.328,45 92.5,45C91.672,45 91,44.328 91,43.5C91,42.672 91.672,42 92.5,42Z" style="fill:rgb(20,20,20);"/>
                </g>
                <g transform="matrix(1.5,0,0,1.5,-123,-45)">
                    <path d="M92.5,41C91.12,41 90,42.12 90,43.5C90,44.88 91.12,46 92.5,46C93.88,46 95,44.88 95,43.5C95,42.12 93.88,41 92.5,41ZM92.5,42C93.328,42 94,42.672 94,43.5C94,44.328 93.328,45 92.5,45C91.672,45 91,44.328 91,43.5C91,42.672 91.672,42 92.5,42Z" style="fill:rgb(20,20,20);"/>
                </g>
                <g transform="matrix(1.5,0,0,1.5,-133.5,-54)">
                    <path d="M98,36.5C98,36.224 97.776,36 97.5,36C97.224,36 97,36.224 97,36.5C97,38.942 97,49.5 97,49.5L98,49.5L98,36.5Z" style="fill:rgb(20,20,20);"/>
                </g>
                <g transform="matrix(9.18485e-17,1.5,-1.5,9.18485e-17,78,-135)">
                    <path d="M98,36.5C98,36.224 97.776,36 97.5,36C97.224,36 97,36.224 97,36.5C97,38.942 97,49.5 97,49.5L98,49.5L98,36.5Z" style="fill:rgb(20,20,20);"/>
                </g>
            </g>
        </g>
    </g>
</svg>
