<?xml version="1.0" encoding="UTF-8" standalone="no"?>
<!DOCTYPE svg PUBLIC "-//W3C//DTD SVG 1.1//EN" "http://www.w3.org/Graphics/SVG/1.1/DTD/svg11.dtd">
<svg width="100%" height="100%" viewBox="0 0 16 16" version="1.1" xmlns="http://www.w3.org/2000/svg" xmlns:xlink="http://www.w3.org/1999/xlink" xml:space="preserve" xmlns:serif="http://www.serif.com/" style="fill-rule:evenodd;clip-rule:evenodd;stroke-linejoin:round;stroke-miterlimit:2;">
    <g transform="matrix(1,0,0,1,-18,-72)">
        <g id="difference" transform="matrix(0.666667,0,0,0.666667,18,72)">
            <rect x="0" y="0" width="24" height="24" style="fill:none;"/>
            <g transform="matrix(1.5,0,0,1.5,-27,-108)">
                <path d="M27.5,72C23.913,72 21,74.913 21,78.5C21,82.087 23.913,85 27.5,85C31.087,85 34,82.087 34,78.5C34,74.913 31.087,72 27.5,72ZM27.5,73C30.536,73 33,75.464 33,78.5C33,81.536 30.536,84 27.5,84C24.464,84 22,81.536 22,78.5C22,75.464 24.464,73 27.5,73Z" style="fill:rgb(20,20,20);"/>
            </g>
            <g transform="matrix(1.5,0,0,1.5,-27,-108)">
                <path d="M21.019,79C21.262,82.189 23.811,84.738 27,84.981L27,87L19,87L19,79L21.019,79Z" style="fill:rgb(108,205,236);"/>
                <path d="M22.016,78.924C21.976,78.403 21.542,78 21.019,78L19,78C18.448,78 18,78.448 18,79L18,87C18,87.552 18.448,88 19,88L27,88C27.552,88 28,87.552 28,87L28,84.981C28,84.458 27.597,84.024 27.076,83.984C24.378,83.778 22.222,81.622 22.016,78.924ZM21.019,79C21.262,82.189 23.811,84.738 27,84.981L27,87L19,87L19,79L21.019,79Z" style="fill:rgb(14,107,117);"/>
            </g>
        </g>
    </g>
</svg>
