<?xml version="1.0" encoding="UTF-8" standalone="no"?>
<!DOCTYPE svg PUBLIC "-//W3C//DTD SVG 1.1//EN" "http://www.w3.org/Graphics/SVG/1.1/DTD/svg11.dtd">
<svg width="100%" height="100%" viewBox="0 0 16 16" version="1.1" xmlns="http://www.w3.org/2000/svg" xmlns:xlink="http://www.w3.org/1999/xlink" xml:space="preserve" xmlns:serif="http://www.serif.com/" style="fill-rule:evenodd;clip-rule:evenodd;stroke-linejoin:round;stroke-miterlimit:2;">
    <g transform="matrix(1,0,0,1,-54,0)">
        <g id="ellipsetool" transform="matrix(0.666667,0,0,0.666667,54,4.44089e-16)">
            <rect x="0" y="0" width="24" height="24" style="fill:none;"/>
            <g transform="matrix(1.625,0,0,1.66667,-87.875,-0.5)">
                <path d="M61,2.1C57.122,2.1 54.077,4.591 54.077,7.5C54.077,10.409 57.122,12.9 61,12.9C64.878,12.9 67.923,10.409 67.923,7.5C67.923,4.591 64.878,2.1 61,2.1ZM61,3C64.311,3 67,5.016 67,7.5C67,9.984 64.311,12 61,12C57.689,12 55,9.984 55,7.5C55,5.016 57.689,3 61,3Z" style="fill:rgb(20,20,20);"/>
            </g>
            <g transform="matrix(1.5,0,0,1.5,16.5,15)">
                <rect x="1" y="1" width="3" height="3" style="fill:rgb(223,147,172);"/>
                <path d="M5,1C5,0.448 4.552,0 4,0L1,0C0.448,0 0,0.448 0,1L0,4C0,4.552 0.448,5 1,5L4,5C4.552,5 5,4.552 5,4L5,1ZM4,1L1,1L1,4L4,4L4,1Z" style="fill:rgb(117,25,53);"/>
            </g>
        </g>
    </g>
</svg>
