<?xml version="1.0" encoding="UTF-8" standalone="no"?>
<!DOCTYPE svg PUBLIC "-//W3C//DTD SVG 1.1//EN" "http://www.w3.org/Graphics/SVG/1.1/DTD/svg11.dtd">
<svg width="100%" height="100%" viewBox="0 0 24 24" version="1.1" xmlns="http://www.w3.org/2000/svg" xmlns:xlink="http://www.w3.org/1999/xlink" xml:space="preserve" xmlns:serif="http://www.serif.com/" style="fill-rule:evenodd;clip-rule:evenodd;stroke-linejoin:round;stroke-miterlimit:2;">
    <g transform="matrix(1,0,0,1,0,-26)">
        <g id="flipx" transform="matrix(1,0,0,1,0,26)">
            <rect x="0" y="0" width="24" height="24" style="fill:none;"/>
            <clipPath id="_clip1">
                <rect x="0" y="0" width="24" height="24"/>
            </clipPath>
            <g clip-path="url(#_clip1)">
                <g transform="matrix(1,0,0,1,-2,-26)">
                    <path d="M13,28C13,27.025 12.297,26.192 11.335,26.028C10.374,25.865 9.434,26.419 9.112,27.339L2.112,47.339C1.898,47.951 1.994,48.629 2.369,49.157C2.744,49.686 3.352,50 4,50L11,50C12.105,50 13,49.105 13,48L13,28ZM11,28L11,48L4,48L11,28Z"/>
                </g>
                <g transform="matrix(-1,0,0,1,26,-26)">
                    <path d="M11,28L11,48L4,48L11,28Z"/>
                    <path d="M9.112,27.339C9.434,26.419 10.374,25.865 11.335,26.028C12.297,26.192 13,27.025 13,28L13,48C13,49.105 12.105,50 11,50L4,50C3.352,50 2.744,49.686 2.369,49.157C1.994,48.629 1.898,47.951 2.112,47.339L9.112,27.339ZM11,28L11,48L4,48L11,28Z"/>
                </g>
            </g>
        </g>
    </g>
</svg>
