<?xml version="1.0" encoding="UTF-8" standalone="no"?>
<!DOCTYPE svg PUBLIC "-//W3C//DTD SVG 1.1//EN" "http://www.w3.org/Graphics/SVG/1.1/DTD/svg11.dtd">
<svg width="100%" height="100%" viewBox="0 0 16 16" version="1.1" xmlns="http://www.w3.org/2000/svg" xmlns:xlink="http://www.w3.org/1999/xlink" xml:space="preserve" xmlns:serif="http://www.serif.com/" style="fill-rule:evenodd;clip-rule:evenodd;stroke-linejoin:round;stroke-miterlimit:2;">
    <g transform="matrix(1,0,0,1,0,-26)">
        <g id="flipx" transform="matrix(0.666667,0,0,0.666667,0,26)">
            <rect x="0" y="0" width="24" height="24" style="fill:none;"/>
            <clipPath id="_clip1">
                <rect x="0" y="0" width="24" height="24"/>
            </clipPath>
            <g clip-path="url(#_clip1)">
                <g transform="matrix(1.07143,0,0,1.05,-2.78571,-27.9)">
                    <path d="M11,28L11,48L4,48L11,28Z" style="fill:rgb(122,103,217);"/>
                    <path d="M12.4,28C12.4,27.305 11.91,26.711 11.239,26.592C10.568,26.474 9.911,26.865 9.682,27.52L2.682,47.52C2.528,47.957 2.593,48.443 2.856,48.823C3.118,49.203 3.545,49.429 4,49.429L11,49.429C11.773,49.429 12.4,48.789 12.4,48L12.4,28ZM11,28L11,48L4,48L11,28Z" style="fill:rgb(53,41,214);"/>
                </g>
                <g transform="matrix(-1.07143,0,0,1.05,26.7857,-27.9)">
                    <path d="M9.682,27.52C9.911,26.865 10.568,26.474 11.239,26.592C11.91,26.711 12.4,27.305 12.4,28L12.4,48C12.4,48.789 11.773,49.429 11,49.429L4,49.429C3.545,49.429 3.118,49.203 2.856,48.823C2.593,48.443 2.528,47.957 2.682,47.52L9.682,27.52ZM11,28L11,48L4,48L11,28Z" style="fill:rgb(20,20,20);"/>
                </g>
            </g>
        </g>
    </g>
</svg>
