<?xml version="1.0" encoding="UTF-8" standalone="no"?>
<!DOCTYPE svg PUBLIC "-//W3C//DTD SVG 1.1//EN" "http://www.w3.org/Graphics/SVG/1.1/DTD/svg11.dtd">
<svg width="100%" height="100%" viewBox="0 0 16 16" version="1.1" xmlns="http://www.w3.org/2000/svg" xmlns:xlink="http://www.w3.org/1999/xlink" xml:space="preserve" xmlns:serif="http://www.serif.com/" style="fill-rule:evenodd;clip-rule:evenodd;stroke-linecap:round;stroke-linejoin:round;stroke-miterlimit:1.5;">
    <g transform="matrix(1,0,0,1,-54,-126)">
        <g id="font" transform="matrix(0.666667,0,0,0.666667,54,126)">
            <rect x="0" y="0" width="24" height="24" style="fill:none;"/>
            <clipPath id="_clip1">
                <rect x="0" y="0" width="24" height="24"/>
            </clipPath>
            <g clip-path="url(#_clip1)">
                <g transform="matrix(1.5,0,0,1.5,-83.25,-191.25)">
                    <path d="M56,131L56,131C56,129.343 57.343,128 59,128C61.946,128 66,128 66,128" style="fill:none;stroke:rgb(20,20,20);stroke-width:1px;"/>
                </g>
                <g transform="matrix(1.5,0,0,1.5,-83.25,-191.25)">
                    <path d="M59,128L59,136C59,137.657 57.657,139 56,139C56,139 56,139 56,139" style="fill:none;stroke:rgb(20,20,20);stroke-width:1px;"/>
                </g>
                <g transform="matrix(1.5,0,0,1.5,-83.25,-191.25)">
                    <path d="M66,128L66,130" style="fill:none;stroke:rgb(20,20,20);stroke-width:1px;"/>
                </g>
                <g transform="matrix(1.5,0,0,1.5,-83.25,-191.25)">
                    <path d="M59,133L64,133" style="fill:none;stroke:rgb(20,20,20);stroke-width:1px;"/>
                </g>
                <g transform="matrix(1.5,0,0,1.5,-80.25,-188.25)">
                    <path d="M69,141L69,131L64,131" style="fill:none;stroke:rgb(20,20,20);stroke-width:1px;"/>
                </g>
                <g transform="matrix(1.5,0,0,1.5,-80.25,-188.25)">
                    <path d="M69,135L65,135C64.204,135 63.441,135.316 62.879,135.879C62.316,136.441 62,137.204 62,138C62,138.007 62,138.013 62,138.02C62,139.666 63.334,141 64.98,141L64.983,141C66.274,141 67.513,140.487 68.426,139.574C68.75,139.25 69,139 69,139" style="fill:none;stroke:rgb(20,20,20);stroke-width:1px;"/>
                </g>
            </g>
        </g>
    </g>
</svg>
