<?xml version="1.0" encoding="UTF-8" standalone="no"?>
<!DOCTYPE svg PUBLIC "-//W3C//DTD SVG 1.1//EN" "http://www.w3.org/Graphics/SVG/1.1/DTD/svg11.dtd">
<svg width="100%" height="100%" viewBox="0 0 16 16" version="1.1" xmlns="http://www.w3.org/2000/svg" xmlns:xlink="http://www.w3.org/1999/xlink" xml:space="preserve" xmlns:serif="http://www.serif.com/" style="fill-rule:evenodd;clip-rule:evenodd;stroke-linecap:round;stroke-linejoin:round;stroke-miterlimit:1.5;">
    <g transform="matrix(1,0,0,1,-72,-54)">
        <g id="gridsnap" transform="matrix(0.666667,0,0,0.666667,72,54)">
            <rect x="0" y="0" width="24" height="24" style="fill:none;"/>
            <g transform="matrix(1.5,0,0,1.2,-102,-82.35)">
                <path d="M79.5,70.5L79.5,85.5" style="fill:none;stroke:rgb(189,189,189);stroke-width:1.1px;"/>
            </g>
            <g transform="matrix(9.18485e-17,1.5,-1.2,7.34788e-17,104.85,-114)">
                <path d="M79.5,70.5L79.5,85.5" style="fill:none;stroke:rgb(189,189,189);stroke-width:1.1px;"/>
            </g>
            <g transform="matrix(9.18485e-17,1.5,-1.2,7.34788e-17,104.85,-102)">
                <path d="M79.5,70.5L79.5,85.5" style="fill:none;stroke:rgb(189,189,189);stroke-width:1.1px;"/>
            </g>
            <g transform="matrix(1.5,0,0,1.2,-114,-82.35)">
                <path d="M79.5,70.5L79.5,85.5" style="fill:none;stroke:rgb(189,189,189);stroke-width:1.1px;"/>
            </g>
            <g transform="matrix(1.5,0,0,1.5,-108,-105)">
                <path d="M79.5,70.5L79.5,85.5" style="fill:none;stroke:rgb(20,20,20);stroke-width:1px;"/>
            </g>
            <g transform="matrix(1.5,0,0,1.5,-27,-105)">
                <path d="M25,83.5L25,71.5C25,71.224 25.224,71 25.5,71C25.776,71 26,71.224 26,71.5L26,83.5C26,83.776 25.776,84 25.5,84C25.224,84 25,83.776 25,83.5Z" style="fill:rgb(12,79,41);"/>
            </g>
            <g transform="matrix(1.5,0,0,1.5,-108,-105)">
                <path d="M72.5,77.5L87.5,77.5" style="fill:none;stroke:rgb(20,20,20);stroke-width:1px;"/>
            </g>
            <g transform="matrix(9.18485e-17,1.5,-1.5,9.18485e-17,127.5,-27)">
                <path d="M25,83.5L25,71.5C25,71.224 25.224,71 25.5,71C25.776,71 26,71.224 26,71.5L26,83.5C26,83.776 25.776,84 25.5,84C25.224,84 25,83.776 25,83.5Z" style="fill:rgb(12,79,41);"/>
            </g>
            <g transform="matrix(1.5,0,0,1.5,-24,-108)">
                <path d="M25,79.5C25,78.672 24.328,78 23.5,78C22.672,78 22,78.672 22,79.5C22,80.328 22.672,81 23.5,81C24.328,81 25,80.328 25,79.5Z" style="fill:rgb(86,228,63);"/>
                <path d="M26,79.5C26,78.119 24.881,77 23.5,77L23.5,78C23.5,78 23.5,77 23.5,77C22.119,77 21,78.119 21,79.5L22,79.5C22,79.5 21,79.5 21,79.5C21,80.881 22.119,82 23.5,82L23.5,81C23.5,81 23.5,82 23.5,82C24.881,82 26,80.881 26,79.5L25,79.5C25,79.5 26,79.5 26,79.5ZM25,79.5C25,78.672 24.328,78 23.5,78C22.672,78 22,78.672 22,79.5C22,80.328 22.672,81 23.5,81C24.328,81 25,80.328 25,79.5Z" style="fill:rgb(12,79,41);"/>
            </g>
        </g>
    </g>
</svg>
