<?xml version="1.0" encoding="UTF-8" standalone="no"?>
<!DOCTYPE svg PUBLIC "-//W3C//DTD SVG 1.1//EN" "http://www.w3.org/Graphics/SVG/1.1/DTD/svg11.dtd">
<svg width="100%" height="100%" viewBox="0 0 24 24" version="1.1" xmlns="http://www.w3.org/2000/svg" xmlns:xlink="http://www.w3.org/1999/xlink" xml:space="preserve" xmlns:serif="http://www.serif.com/" style="fill-rule:evenodd;clip-rule:evenodd;stroke-linejoin:round;stroke-miterlimit:2;">
    <rect id="handletool" x="0" y="0" width="24" height="24" style="fill:none;"/>
    <clipPath id="_clip1">
        <rect id="handletool1" serif:id="handletool" x="0" y="0" width="24" height="24"/>
    </clipPath>
    <g clip-path="url(#_clip1)">
        <path d="M23,7.001L17,7.001C16.448,7.001 16,7.449 16,8.001C16,8.552 16.448,9.001 17,9.001L23,9.001C23.552,9.001 24,8.552 24,8.001C24,7.449 23.552,7.001 23,7.001Z"/>
        <path d="M4.293,12.293L0.293,16.293C-0.097,16.683 -0.097,17.317 0.293,17.707C0.683,18.097 1.317,18.097 1.707,17.707L5.707,13.707C6.097,13.317 6.097,12.683 5.707,12.293C5.317,11.903 4.683,11.903 4.293,12.293Z"/>
        <path d="M8,15.748C4.551,14.859 2,11.725 2,8.001C2,3.585 5.585,0.001 10,0.001C14.415,0.001 18,3.585 18,8.001C18,9.533 17.568,10.966 16.819,12.183L15.369,10.681C15.773,9.874 16,8.964 16,8.001C16,4.689 13.311,2.001 10,2.001C6.689,2.001 4,4.689 4,8.001C4,10.611 5.671,12.834 8,13.659L8,15.748Z"/>
        <g transform="matrix(1,0,0,1,-48,0)">
            <path d="M62.828,20.001L59.414,23.414C58.842,23.986 57.982,24.157 57.235,23.848C56.487,23.538 56,22.809 56,22L56,8.001C56,7.185 56.495,6.452 57.251,6.146C58.007,5.841 58.872,6.025 59.439,6.611L69.095,16.611C69.653,17.189 69.811,18.043 69.498,18.782C69.184,19.521 68.459,20.001 67.657,20.001L62.828,20.001Z"/>
        </g>
    </g>
</svg>
