<?xml version="1.0" encoding="UTF-8" standalone="no"?>
<!DOCTYPE svg PUBLIC "-//W3C//DTD SVG 1.1//EN" "http://www.w3.org/Graphics/SVG/1.1/DTD/svg11.dtd">
<svg width="100%" height="100%" viewBox="0 0 16 16" version="1.1" xmlns="http://www.w3.org/2000/svg" xmlns:xlink="http://www.w3.org/1999/xlink" xml:space="preserve" xmlns:serif="http://www.serif.com/" style="fill-rule:evenodd;clip-rule:evenodd;stroke-linecap:round;stroke-linejoin:round;stroke-miterlimit:1.5;">
    <g id="handletool" transform="matrix(0.666667,0,0,0.666667,0,0)">
        <rect x="0" y="0" width="24" height="24" style="fill:none;"/>
        <clipPath id="_clip1">
            <rect x="0" y="0" width="24" height="24"/>
        </clipPath>
        <g clip-path="url(#_clip1)">
            <g transform="matrix(1.3125,0,0,1.3125,0.5625,0.1875)">
                <path d="M7,-0.143C4.162,-0.143 1.857,2.162 1.857,5C1.857,7.838 4.162,10.143 7,10.143C9.838,10.143 12.143,7.838 12.143,5C12.143,2.162 9.838,-0.143 7,-0.143ZM7,1C9.208,1 11,2.792 11,5C11,7.208 9.208,9 7,9C4.792,9 3,7.208 3,5C3,2.792 4.792,1 7,1Z" style="fill:rgb(20,20,20);"/>
            </g>
            <g transform="matrix(1.66667,0,0,1.5,-1.75,0)">
                <path d="M10.5,4.5L15,4.5" style="fill:none;stroke:rgb(20,20,20);stroke-width:0.95px;"/>
            </g>
            <g transform="matrix(-0.845178,0.845178,-0.76066,-0.76066,17.8047,5.54124)">
                <path d="M10.5,4.5L16.129,4.5" style="fill:none;stroke:rgb(20,20,20);stroke-width:1.32px;"/>
            </g>
            <g transform="matrix(1.5,0,0,1.5,1.5,0)">
                <path d="M6,5L6,15L9,12L13,12L6,5Z" style="fill:rgb(138,146,217);"/>
                <path d="M9.414,13L6.707,15.707C6.421,15.993 5.991,16.079 5.617,15.924C5.244,15.769 5,15.404 5,15L5,5C5,4.596 5.244,4.231 5.617,4.076C5.991,3.921 6.421,4.007 6.707,4.293L13.707,11.293C13.993,11.579 14.079,12.009 13.924,12.383C13.769,12.756 13.404,13 13,13L9.414,13ZM6,5L6,15L9,12L13,12L6,5Z" style="fill:rgb(53,41,214);"/>
            </g>
        </g>
    </g>
</svg>
