<?xml version="1.0" encoding="UTF-8" standalone="no"?>
<!DOCTYPE svg PUBLIC "-//W3C//DTD SVG 1.1//EN" "http://www.w3.org/Graphics/SVG/1.1/DTD/svg11.dtd">
<svg width="100%" height="100%" viewBox="0 0 16 16" version="1.1" xmlns="http://www.w3.org/2000/svg" xmlns:xlink="http://www.w3.org/1999/xlink" xml:space="preserve" xmlns:serif="http://www.serif.com/" style="fill-rule:evenodd;clip-rule:evenodd;stroke-linejoin:round;stroke-miterlimit:2;">
    <g id="handletool" transform="matrix(0.666667,0,0,0.666667,0,0)">
        <rect x="0" y="0" width="24" height="24" style="fill:none;"/>
        <clipPath id="_clip1">
            <rect x="0" y="0" width="24" height="24"/>
        </clipPath>
        <g clip-path="url(#_clip1)">
            <g transform="matrix(2.1,0,0,2.1,-6.6,-9)">
                <path d="M6,5L6,15L8.857,12.143L13.143,12.143L6,5Z" style="fill:rgb(244,172,187);"/>
                <path d="M9.153,12.857L6.505,15.505C6.301,15.709 5.994,15.77 5.727,15.66C5.46,15.549 5.286,15.289 5.286,15L5.286,5C5.286,4.711 5.46,4.451 5.727,4.34C5.994,4.23 6.301,4.291 6.505,4.495L13.648,11.638C13.852,11.842 13.913,12.149 13.803,12.416C13.692,12.683 13.432,12.857 13.143,12.857L9.153,12.857ZM6,5L6,15L8.857,12.143L13.143,12.143L6,5Z" style="fill:rgb(105,0,41);"/>
            </g>
        </g>
    </g>
</svg>
