<?xml version="1.0" encoding="UTF-8" standalone="no"?>
<!DOCTYPE svg PUBLIC "-//W3C//DTD SVG 1.1//EN" "http://www.w3.org/Graphics/SVG/1.1/DTD/svg11.dtd">
<svg width="100%" height="100%" viewBox="0 0 16 16" version="1.1" xmlns="http://www.w3.org/2000/svg" xmlns:xlink="http://www.w3.org/1999/xlink" xml:space="preserve" xmlns:serif="http://www.serif.com/" style="fill-rule:evenodd;clip-rule:evenodd;stroke-linecap:round;stroke-linejoin:round;stroke-miterlimit:1.5;">
    <g id="handletool" transform="matrix(0.666667,0,0,0.666667,0,0)">
        <rect x="0" y="0" width="24" height="24" style="fill:none;"/>
        <g transform="matrix(1.5,0,0,1.5,0,1.33227e-15)">
            <path d="M0.5,9.5L4.5,3.5L15.5,3.5" style="fill:none;stroke:rgb(20,20,20);stroke-width:1px;"/>
        </g>
        <g transform="matrix(1.5,0,0,1.5,3,1.5)">
            <rect x="1" y="1" width="3" height="3" style="fill:rgb(189,189,189);"/>
            <path d="M5,1C5,0.448 4.552,-0 4,0L1,0C0.448,0 -0,0.448 0,1L0,4C0,4.552 0.448,5 1,5L4,5C4.552,5 5,4.552 5,4L5,1ZM4,1L1,1L1,4L4,4L4,1Z" style="fill:rgb(20,20,20);"/>
        </g>
        <g transform="matrix(1.5,0,0,1.5,-1.5,-1.5)">
            <path d="M6,5L6,15L9,12L13,12L6,5Z" style="fill:rgb(223,147,172);"/>
            <path d="M9.414,13L6.707,15.707C6.421,15.993 5.991,16.079 5.617,15.924C5.244,15.769 5,15.404 5,15L5,5C5,4.596 5.244,4.231 5.617,4.076C5.991,3.921 6.421,4.007 6.707,4.293L13.707,11.293C13.993,11.579 14.079,12.009 13.924,12.383C13.769,12.756 13.404,13 13,13L9.414,13ZM6,5L6,15L9,12L13,12L6,5Z" style="fill:rgb(117,25,53);"/>
        </g>
    </g>
</svg>
