<?xml version="1.0" encoding="UTF-8" standalone="no"?>
<!DOCTYPE svg PUBLIC "-//W3C//DTD SVG 1.1//EN" "http://www.w3.org/Graphics/SVG/1.1/DTD/svg11.dtd">
<svg width="100%" height="100%" viewBox="0 0 16 16" version="1.1" xmlns="http://www.w3.org/2000/svg" xmlns:xlink="http://www.w3.org/1999/xlink" xml:space="preserve" xmlns:serif="http://www.serif.com/" style="fill-rule:evenodd;clip-rule:evenodd;stroke-linecap:round;stroke-linejoin:round;stroke-miterlimit:1.5;">
    <g transform="matrix(1,0,0,1,-36,-54)">
        <g id="handlesnap" transform="matrix(0.666667,0,0,0.666667,36,54)">
            <rect x="0" y="0" width="24" height="24" style="fill:none;"/>
            <g transform="matrix(1.5,0,0,1.5,-54,-105)">
                <path d="M36.5,72.5L45.5,70.5L43.5,78.5L36.5,85.465L51.5,82.5" style="fill:none;stroke:rgb(20,20,20);stroke-width:1px;"/>
            </g>
            <g transform="matrix(1.5,0,0,1.5,-27,-103.5)">
                <path d="M25,83.5L25,71.5C25,71.224 25.224,71 25.5,71C25.776,71 26,71.224 26,71.5L26,83.5C26,83.776 25.776,84 25.5,84C25.224,84 25,83.776 25,83.5Z" style="fill:rgb(12,79,41);"/>
            </g>
            <g transform="matrix(9.18485e-17,1.5,-1.5,9.18485e-17,127.5,-25.5)">
                <path d="M25,83.5L25,71.5C25,71.224 25.224,71 25.5,71C25.776,71 26,71.224 26,71.5L26,83.5C26,83.776 25.776,84 25.5,84C25.224,84 25,83.776 25,83.5Z" style="fill:rgb(12,79,41);"/>
            </g>
            <g transform="matrix(1.5,0,0,1.5,-24,-106.5)">
                <rect x="22" y="78" width="3" height="3" style="fill:rgb(86,228,63);"/>
                <path d="M26,78C26,77.448 25.552,77 25,77L22,77C21.448,77 21,77.448 21,78L21,81C21,81.552 21.448,82 22,82L25,82C25.552,82 26,81.552 26,81L26,78ZM25,78L22,78L22,81L25,81L25,78Z" style="fill:rgb(12,79,41);"/>
            </g>
        </g>
    </g>
</svg>
