<?xml version="1.0" encoding="UTF-8" standalone="no"?>
<!DOCTYPE svg PUBLIC "-//W3C//DTD SVG 1.1//EN" "http://www.w3.org/Graphics/SVG/1.1/DTD/svg11.dtd">
<svg width="100%" height="100%" viewBox="0 0 16 16" version="1.1" xmlns="http://www.w3.org/2000/svg" xmlns:xlink="http://www.w3.org/1999/xlink" xml:space="preserve" xmlns:serif="http://www.serif.com/" style="fill-rule:evenodd;clip-rule:evenodd;stroke-linecap:round;stroke-linejoin:round;stroke-miterlimit:1.5;">
    <g transform="matrix(1,0,0,1,-36,-54)">
        <g id="handlesnap" transform="matrix(0.666667,0,0,0.666667,36,54)">
            <rect x="0" y="0" width="24" height="24" style="fill:none;"/>
            <g transform="matrix(1.5,0,0,1.5,-54,-105)">
                <path d="M36.5,72.5L45.5,70.5L43.5,78.5L36.5,85.465L51.5,82.5" style="fill:none;stroke:rgb(20,20,20);stroke-width:1px;"/>
            </g>
            <g transform="matrix(1.5,0,0,1.5,-54,-81)">
                <path d="M43,61L43,56.5C43,56.224 43.224,56 43.5,56C43.776,56 44,56.224 44,56.5L44,61L45,61L45,62L49.5,62C49.776,62 50,62.224 50,62.5C50,62.776 49.776,63 49.5,63L45,63L45,64L44,64L44,68.5C44,68.776 43.776,69 43.5,69C43.224,69 43,68.776 43,68.5L43,64L42,64L42,63L37.5,63C37.224,63 37,62.776 37,62.5C37,62.224 37.224,62 37.5,62L42,62L42,61L43,61Z" style="fill:rgb(12,79,41);"/>
            </g>
            <g transform="matrix(1.5,0,0,1.5,-54,-81)">
                <rect x="42" y="61" width="3" height="3" style="fill:rgb(86,228,63);"/>
                <path d="M46,61C46,60.448 45.552,60 45,60L42,60C41.448,60 41,60.448 41,61L41,64C41,64.552 41.448,65 42,65L45,65C45.552,65 46,64.552 46,64L46,61ZM45,61L42,61L42,64L45,64L45,61Z" style="fill:rgb(12,79,41);"/>
            </g>
        </g>
    </g>
</svg>
