<?xml version="1.0" encoding="UTF-8" standalone="no"?>
<!DOCTYPE svg PUBLIC "-//W3C//DTD SVG 1.1//EN" "http://www.w3.org/Graphics/SVG/1.1/DTD/svg11.dtd">
<svg width="100%" height="100%" viewBox="0 0 16 16" version="1.1" xmlns="http://www.w3.org/2000/svg" xmlns:xlink="http://www.w3.org/1999/xlink" xml:space="preserve" xmlns:serif="http://www.serif.com/" style="fill-rule:evenodd;clip-rule:evenodd;stroke-linejoin:round;stroke-miterlimit:2;">
    <g transform="matrix(1,0,0,1,-36,-72)">
        <g id="intersection" transform="matrix(0.666667,0,0,0.666667,36,72)">
            <rect x="0" y="0" width="24" height="24" style="fill:none;"/>
            <g transform="matrix(1.5,0,0,1.5,-54,-108)">
                <path d="M46,79C46,78.448 45.552,78 45,78L37,78C36.448,78 36,78.448 36,79L36,87C36,87.552 36.448,88 37,88L45,88C45.552,88 46,87.552 46,87L46,79ZM45,79L37,79L37,87L45,87L45,79Z" style="fill:rgb(20,20,20);"/>
            </g>
            <g transform="matrix(1.5,0,0,1.5,-54,-108)">
                <path d="M45.5,72C41.913,72 39,74.913 39,78.5C39,82.087 41.913,85 45.5,85C49.087,85 52,82.087 52,78.5C52,74.913 49.087,72 45.5,72ZM45.5,73C48.536,73 51,75.464 51,78.5C51,81.536 48.536,84 45.5,84C42.464,84 40,81.536 40,78.5C40,75.464 42.464,73 45.5,73Z" style="fill:rgb(20,20,20);"/>
            </g>
            <g transform="matrix(1.5,0,0,1.5,-54,-108)">
                <path d="M45,83.978C42.363,83.74 40.261,81.637 40.022,79L45,79L45,83.978Z" style="fill:rgb(108,205,236);"/>
                <path d="M44.91,84.973C45.19,84.999 45.467,84.905 45.675,84.716C45.882,84.526 46,84.258 46,83.978L46,79C46,78.448 45.552,78 45,78L40.022,78C39.742,78 39.474,78.118 39.284,78.325C39.095,78.533 39.001,78.81 39.027,79.09C39.308,82.207 41.793,84.692 44.91,84.973ZM45,83.978C42.363,83.74 40.261,81.637 40.022,79L45,79L45,83.978Z" style="fill:rgb(14,107,117);"/>
            </g>
        </g>
    </g>
</svg>
