<?xml version="1.0" encoding="UTF-8" standalone="no"?>
<!DOCTYPE svg PUBLIC "-//W3C//DTD SVG 1.1//EN" "http://www.w3.org/Graphics/SVG/1.1/DTD/svg11.dtd">
<svg width="100%" height="100%" viewBox="0 0 16 16" version="1.1" xmlns="http://www.w3.org/2000/svg" xmlns:xlink="http://www.w3.org/1999/xlink" xml:space="preserve" xmlns:serif="http://www.serif.com/" style="fill-rule:evenodd;clip-rule:evenodd;stroke-linejoin:round;stroke-miterlimit:2;">
    <g transform="matrix(1,0,0,1,-18,-126)">
        <g id="metricgrid" transform="matrix(0.666667,0,0,0.666667,18,126)">
            <rect x="0" y="0" width="24" height="24" style="fill:none;"/>
            <clipPath id="_clip1">
                <rect x="0" y="0" width="24" height="24"/>
            </clipPath>
            <g clip-path="url(#_clip1)">
                <g transform="matrix(1.5,0,0,1.5,0,-144)">
                    <path d="M0,111C0,111.552 0.448,112 1,112L4,112C4.552,112 5,111.552 5,111L5,104C5,103.204 5.316,102.441 5.879,101.879C6.441,101.316 7.204,101 8,101L8,100C8,100 8,101 8,101C8.796,101 9.559,101.316 10.121,101.879C10.684,102.441 11,103.204 11,104C11,107.146 11,111 11,111C11,111.552 11.448,112 12,112L15,112C15.552,112 16,111.552 16,111L16,104C16,99.582 12.418,96 8,96L8,97L8,96C3.582,96 -0,99.582 -0,104L0,111ZM1,111L4,111L4,104C4,102.939 4.421,101.922 5.172,101.172C5.922,100.421 6.939,100 8,100C8,100 8,100 8,100C9.061,100 10.078,100.421 10.828,101.172C11.579,101.922 12,102.939 12,104C12,107.146 12,111 12,111L15,111L15,104C15,100.134 11.866,97 8,97L8,97C4.134,97 1,100.134 1,104L1,111Z" style="fill:rgb(20,20,20);"/>
                </g>
                <g transform="matrix(1.5,0,0,1.5,0,-144)">
                    <path d="M0,107C0,107.552 0.448,108 1,108L4,108C4.552,108 5,107.552 5,107L5,104C5,102.343 6.343,101 8,101L8,100C8,100 8,101 8,101C9.657,101 11,102.343 11,104C11,105.568 11,107 11,107C11,107.552 11.448,108 12,108L15,108C15.552,108 16,107.552 16,107L16,104C16,99.582 12.418,96 8,96L8,97L8,96C3.582,96 0,99.582 0,104L0,107ZM1,107L4,107L4,104C4,101.791 5.791,100 8,100C8,100 8,100 8,100C10.209,100 12,101.791 12,104C12,105.568 12,107 12,107L15,107L15,104C15,100.134 11.866,97 8,97L8,97C4.134,97 1,100.134 1,104L1,107Z" style="fill:rgb(20,20,20);"/>
                </g>
            </g>
        </g>
    </g>
</svg>
