<?xml version="1.0" encoding="UTF-8" standalone="no"?>
<!DOCTYPE svg PUBLIC "-//W3C//DTD SVG 1.1//EN" "http://www.w3.org/Graphics/SVG/1.1/DTD/svg11.dtd">
<svg width="100%" height="100%" viewBox="0 0 16 16" version="1.1" xmlns="http://www.w3.org/2000/svg" xmlns:xlink="http://www.w3.org/1999/xlink" xml:space="preserve" xmlns:serif="http://www.serif.com/" style="fill-rule:evenodd;clip-rule:evenodd;stroke-linecap:round;stroke-linejoin:round;stroke-miterlimit:1.5;">
    <g transform="matrix(1,0,0,1,-18,-126)">
        <g id="metricgrid" transform="matrix(0.666667,0,0,0.666667,18,126)">
            <rect x="0" y="0" width="24" height="24" style="fill:none;"/>
            <clipPath id="_clip1">
                <rect x="0" y="0" width="24" height="24"/>
            </clipPath>
            <g clip-path="url(#_clip1)">
                <g transform="matrix(1.5,0,0,1.5,-30,-189)">
                    <path d="M23,126.5C23,126.367 22.947,126.24 22.854,126.146C22.76,126.053 22.633,126 22.5,126C22.367,126 22.24,126.053 22.146,126.146C22.053,126.24 22,126.367 22,126.5C22,128.888 22,139.112 22,141.5C22,141.633 22.053,141.76 22.146,141.854C22.24,141.947 22.367,142 22.5,142C22.633,142 22.76,141.947 22.854,141.854C22.947,141.76 23,141.633 23,141.5C23,139.112 23,128.888 23,126.5Z" style="fill:rgb(20,20,20);"/>
                </g>
                <g transform="matrix(1,0,0,1,-17.75,-125.75)">
                    <path d="M18.5,126.5L21.5,129.5L18.5,132.5" style="fill:none;stroke:rgb(20,20,20);stroke-width:1.5px;"/>
                </g>
                <g transform="matrix(2.25,0,0,1.5,-43.5,-189)">
                    <path d="M24,128.5C24,128.367 23.965,128.24 23.902,128.146C23.84,128.053 23.755,128 23.667,128C23.297,128 22.703,128 22.333,128C22.245,128 22.16,128.053 22.098,128.146C22.035,128.24 22,128.367 22,128.5C22,128.633 22.035,128.76 22.098,128.854C22.16,128.947 22.245,129 22.333,129C22.703,129 23.297,129 23.667,129C23.755,129 23.84,128.947 23.902,128.854C23.965,128.76 24,128.633 24,128.5Z" style="fill:rgb(189,189,189);"/>
                </g>
                <g transform="matrix(2.25,0,0,1.5,-37.5,-189)">
                    <path d="M24,128.5C24,128.367 23.965,128.24 23.902,128.146C23.84,128.053 23.755,128 23.667,128C23.297,128 22.703,128 22.333,128C22.245,128 22.16,128.053 22.098,128.146C22.035,128.24 22,128.367 22,128.5C22,128.633 22.035,128.76 22.098,128.854C22.16,128.947 22.245,129 22.333,129C22.703,129 23.297,129 23.667,129C23.755,129 23.84,128.947 23.902,128.854C23.965,128.76 24,128.633 24,128.5Z" style="fill:rgb(189,189,189);"/>
                </g>
                <g transform="matrix(2.25,0,0,1.5,-31.5,-189)">
                    <path d="M24,128.5C24,128.367 23.965,128.24 23.902,128.146C23.84,128.053 23.755,128 23.667,128C23.297,128 22.703,128 22.333,128C22.245,128 22.16,128.053 22.098,128.146C22.035,128.24 22,128.367 22,128.5C22,128.633 22.035,128.76 22.098,128.854C22.16,128.947 22.245,129 22.333,129C22.703,129 23.297,129 23.667,129C23.755,129 23.84,128.947 23.902,128.854C23.965,128.76 24,128.633 24,128.5Z" style="fill:rgb(189,189,189);"/>
                </g>
                <g transform="matrix(1.5,0,0,1.5,-27,-189)">
                    <path d="M30,141C30,141.552 30.448,142 31,142L33,142C33.552,142 34,141.552 34,141L34,136C34,132.686 31.314,130 28,130L28,131L28,130C24.686,130 22,132.686 22,136L22,141C22,141.552 22.448,142 23,142L25,142C25.552,142 26,141.552 26,141L26,135.998C26,135.468 26.21,134.96 26.585,134.585C26.96,134.211 27.468,134 27.998,134C27.999,134 28.001,134 28.002,134C28.532,134 29.04,134.211 29.415,134.585C29.79,134.96 30,135.468 30,135.998C30,138.269 30,141 30,141ZM31,141L33,141L33,136C33,133.239 30.761,131 28,131L28,131C25.239,131 23,133.239 23,136L23,141L25,141L25,135.998C25,135.203 25.316,134.44 25.878,133.878C26.44,133.316 27.203,133 27.998,133C27.999,133 28.001,133 28.002,133C28.797,133 29.56,133.316 30.122,133.878C30.684,134.44 31,135.203 31,135.998C31,138.269 31,141 31,141Z" style="fill:rgb(20,20,20);"/>
                </g>
                <g transform="matrix(1.5,0,0,1.5,-27,-189)">
                    <rect x="23" y="138" width="2" height="1" style="fill:rgb(20,20,20);"/>
                </g>
                <g transform="matrix(1.5,0,0,1.5,-15,-189)">
                    <rect x="23" y="138" width="2" height="1" style="fill:rgb(20,20,20);"/>
                </g>
            </g>
        </g>
    </g>
</svg>
