<?xml version="1.0" encoding="UTF-8" standalone="no"?>
<!DOCTYPE svg PUBLIC "-//W3C//DTD SVG 1.1//EN" "http://www.w3.org/Graphics/SVG/1.1/DTD/svg11.dtd">
<svg width="100%" height="100%" viewBox="0 0 16 16" version="1.1" xmlns="http://www.w3.org/2000/svg" xmlns:xlink="http://www.w3.org/1999/xlink" xml:space="preserve" xmlns:serif="http://www.serif.com/" style="fill-rule:evenodd;clip-rule:evenodd;stroke-linecap:round;stroke-linejoin:round;stroke-miterlimit:1.5;">
    <g transform="matrix(1,0,0,1,-36,-126)">
        <g id="modifiers" transform="matrix(0.666667,0,0,0.666667,36,126)">
            <rect x="0" y="0" width="24" height="24" style="fill:none;"/>
            <clipPath id="_clip1">
                <rect x="0" y="0" width="24" height="24"/>
            </clipPath>
            <g clip-path="url(#_clip1)">
                <g transform="matrix(1.5,0,0,1.5,-55.5,-190.5)">
                    <path d="M48.707,127.293C48.317,126.902 47.683,126.902 47.293,127.293L37.293,137.293C36.902,137.683 36.902,138.317 37.293,138.707L38.293,139.707C38.683,140.098 39.317,140.098 39.707,139.707L49.707,129.707C50.098,129.317 50.098,128.683 49.707,128.293L48.707,127.293ZM48,128L49,129L39,139L38,138L48,128Z" style="fill:rgb(20,20,20);"/>
                </g>
                <g transform="matrix(1.5,0,0,1.5,-54,-189)">
                    <path d="M45.5,128.5L46.5,129.5" style="fill:none;stroke:rgb(20,20,20);stroke-width:1px;"/>
                </g>
                <g transform="matrix(1.92857,0,0,1.5,-74.3571,-187.5)">
                    <path d="M51,136.5C51,136.224 50.826,136 50.611,136C49.386,136 45.614,136 44.389,136C44.174,136 44,136.224 44,136.5C44,136.776 44.174,137 44.389,137C45.614,137 49.386,137 50.611,137C50.826,137 51,136.776 51,136.5Z" style="fill:rgb(20,20,20);"/>
                </g>
                <g transform="matrix(1.18091e-16,1.92857,-1.5,9.18485e-17,222,-74.3571)">
                    <path d="M51,136.5C51,136.224 50.826,136 50.611,136C49.386,136 45.614,136 44.389,136C44.174,136 44,136.224 44,136.5C44,136.776 44.174,137 44.389,137C45.614,137 49.386,137 50.611,137C50.826,137 51,136.776 51,136.5Z" style="fill:rgb(20,20,20);"/>
                </g>
                <g transform="matrix(-1.07143,1.07143,-1.06066,-1.06066,212.923,111.137)">
                    <path d="M51,136.487C51,136.358 50.949,136.234 50.859,136.143C50.768,136.051 50.646,136 50.518,136C49.246,136 45.807,136 44.507,136C44.372,136 44.244,136.054 44.148,136.15C44.053,136.246 44,136.376 44,136.512C44,136.512 44,136.513 44,136.513C44,136.642 44.051,136.766 44.141,136.857C44.232,136.949 44.354,137 44.482,137C45.754,137 49.193,137 50.493,137C50.628,137 50.756,136.946 50.852,136.85C50.947,136.754 51,136.624 51,136.488C51,136.488 51,136.487 51,136.487Z" style="fill:rgb(20,20,20);"/>
                </g>
                <g transform="matrix(-1.07143,-1.07143,1.06066,-1.06066,-76.6373,212.923)">
                    <path d="M51,136.512C51,136.376 50.947,136.246 50.852,136.15C50.756,136.054 50.628,136 50.493,136C49.193,136 45.754,136 44.482,136C44.354,136 44.232,136.051 44.141,136.143C44.051,136.234 44,136.358 44,136.487C44,136.487 44,136.488 44,136.488C44,136.624 44.053,136.754 44.148,136.85C44.244,136.946 44.372,137 44.507,137C45.807,137 49.246,137 50.518,137C50.646,137 50.768,136.949 50.859,136.857C50.949,136.766 51,136.642 51,136.513C51,136.513 51,136.512 51,136.512Z" style="fill:rgb(20,20,20);"/>
                </g>
            </g>
        </g>
    </g>
</svg>
