<?xml version="1.0" encoding="UTF-8" standalone="no"?>
<!DOCTYPE svg PUBLIC "-//W3C//DTD SVG 1.1//EN" "http://www.w3.org/Graphics/SVG/1.1/DTD/svg11.dtd">
<svg width="100%" height="100%" viewBox="0 0 24 24" version="1.1" xmlns="http://www.w3.org/2000/svg" xmlns:xlink="http://www.w3.org/1999/xlink" xml:space="preserve" xmlns:serif="http://www.serif.com/" style="fill-rule:evenodd;clip-rule:evenodd;stroke-linejoin:round;stroke-miterlimit:2;">
    <g transform="matrix(1,0,0,1,-48,0)">
        <g id="movetool" transform="matrix(1,0,0,1,48,0)">
            <rect x="0" y="0" width="24" height="24" style="fill:none;"/>
            <clipPath id="_clip1">
                <rect x="0" y="0" width="24" height="24"/>
            </clipPath>
            <g clip-path="url(#_clip1)">
                <g transform="matrix(1,0,0,1,-48,0)">
                    <path d="M54,2C54,0.895 53.105,-0 52,0L50,0C48.895,0 48,0.895 48,2L48,4C48,5.105 48.895,6 50,6L52,6C53.105,6 54,5.105 54,4L54,2ZM52,2L50,2L50,4L52,4L52,2Z"/>
                </g>
                <g transform="matrix(1,0,0,1,-34,0)">
                    <path d="M54,2C54,0.895 53.105,-0 52,0L50,0C48.895,0 48,0.895 48,2L48,4C48,5.105 48.895,6 50,6L52,6C53.105,6 54,5.105 54,4L54,2ZM52,2L50,2L50,4L52,4L52,2Z"/>
                </g>
                <g transform="matrix(1,0,0,1,-48,14)">
                    <path d="M54,2C54,0.895 53.105,-0 52,0L50,0C48.895,0 48,0.895 48,2L48,4C48,5.105 48.895,6 50,6L52,6C53.105,6 54,5.105 54,4L54,2ZM52,2L50,2L50,4L52,4L52,2Z"/>
                </g>
                <g transform="matrix(1,0,0,1,-48,0)">
                    <path d="M56,16L56,18L53,18L53,16L56,16ZM52,15L50,15L50,5L52,5L52,15ZM66,13.406L64,11.335L64,5L66,5L66,13.406ZM63,4L53,4L53,2L63,2L63,4Z"/>
                </g>
                <g transform="matrix(1,0,0,1,-48,0)">
                    <path d="M62.828,20.001L59.414,23.414C58.842,23.986 57.982,24.157 57.235,23.848C56.487,23.538 56,22.809 56,22L56,8.001C56,7.185 56.495,6.452 57.251,6.146C58.007,5.841 58.872,6.025 59.439,6.611L69.095,16.611C69.653,17.189 69.811,18.043 69.498,18.782C69.184,19.521 68.459,20.001 67.657,20.001L62.828,20.001Z"/>
                </g>
            </g>
        </g>
    </g>
</svg>
