<?xml version="1.0" encoding="UTF-8" standalone="no"?>
<!DOCTYPE svg PUBLIC "-//W3C//DTD SVG 1.1//EN" "http://www.w3.org/Graphics/SVG/1.1/DTD/svg11.dtd">
<svg width="100%" height="100%" viewBox="0 0 24 24" version="1.1" xmlns="http://www.w3.org/2000/svg" xmlns:xlink="http://www.w3.org/1999/xlink" xml:space="preserve" xmlns:serif="http://www.serif.com/" style="fill-rule:evenodd;clip-rule:evenodd;stroke-linejoin:round;stroke-miterlimit:2;">
    <g transform="matrix(1,0,0,1,-48,0)">
        <g id="movetool" transform="matrix(1,0,0,1,48,0)">
            <rect x="0" y="0" width="24" height="24" style="fill:none;"/>
            <clipPath id="_clip1">
                <rect x="0" y="0" width="24" height="24"/>
            </clipPath>
            <g clip-path="url(#_clip1)">
                <g transform="matrix(1.41429,0,0,1.41429,-2.97209,0.684532)">
                    <path d="M12.586,13.658L10.172,16.071C9.768,16.476 9.159,16.597 8.631,16.378C8.103,16.159 7.758,15.643 7.758,15.071L7.758,5.173C7.758,4.596 8.108,4.078 8.642,3.862C9.177,3.646 9.789,3.776 10.189,4.191L17.017,11.261C17.411,11.669 17.523,12.274 17.302,12.796C17.08,13.318 16.567,13.658 16,13.658L12.586,13.658ZM9.172,15.071L9.172,5.173L16,12.244L12,12.244L9.172,15.071Z"/>
                </g>
                <g transform="matrix(1,0,0,1,-48,0)">
                    <path d="M54,2C54,0.895 53.105,-0 52,0L50,0C48.895,0 48,0.895 48,2L48,4C48,5.105 48.895,6 50,6L52,6C53.105,6 54,5.105 54,4L54,2ZM52,2L50,2L50,4L52,4L52,2Z"/>
                </g>
                <g transform="matrix(1,0,0,1,-34,0)">
                    <path d="M54,2C54,0.895 53.105,-0 52,0L50,0C48.895,0 48,0.895 48,2L48,4C48,5.105 48.895,6 50,6L52,6C53.105,6 54,5.105 54,4L54,2ZM52,2L50,2L50,4L52,4L52,2Z"/>
                </g>
                <g transform="matrix(1,0,0,1,-48,14)">
                    <path d="M54,2C54,0.895 53.105,-0 52,0L50,0C48.895,0 48,0.895 48,2L48,4C48,5.105 48.895,6 50,6L52,6C53.105,6 54,5.105 54,4L54,2ZM52,2L50,2L50,4L52,4L52,2Z"/>
                </g>
                <g transform="matrix(1,0,0,1,-48,0)">
                    <path d="M56,16L56,18L53,18L53,16L56,16ZM52,15L50,15L50,5L52,5L52,15ZM66,13.406L64,11.335L64,5L66,5L66,13.406ZM63,4L53,4L53,2L63,2L63,4Z"/>
                </g>
            </g>
        </g>
    </g>
</svg>
