<?xml version="1.0" encoding="UTF-8" standalone="no"?>
<!DOCTYPE svg PUBLIC "-//W3C//DTD SVG 1.1//EN" "http://www.w3.org/Graphics/SVG/1.1/DTD/svg11.dtd">
<svg width="100%" height="100%" viewBox="0 0 16 16" version="1.1" xmlns="http://www.w3.org/2000/svg" xmlns:xlink="http://www.w3.org/1999/xlink" xml:space="preserve" xmlns:serif="http://www.serif.com/" style="fill-rule:evenodd;clip-rule:evenodd;stroke-linecap:round;stroke-linejoin:round;stroke-miterlimit:1.5;">
    <g transform="matrix(1,0,0,1,0,-108)">
        <g id="newfont" transform="matrix(0.666667,0,0,0.666667,0,108)">
            <rect x="0" y="0" width="24" height="24" style="fill:none;"/>
            <g transform="matrix(2.33333,0,0,2.1,-0.833333,-235.8)">
                <path d="M10,115.857L7.429,113L1,113L1,123L10,123L10,115.857Z" style="fill:rgb(189,189,189);"/>
                <path d="M10.643,115.857C10.643,115.668 10.575,115.486 10.455,115.352L7.883,112.495C7.763,112.361 7.599,112.286 7.429,112.286L1,112.286C0.645,112.286 0.357,112.606 0.357,113L0.357,123C0.357,123.394 0.645,123.714 1,123.714L10,123.714C10.355,123.714 10.643,123.394 10.643,123L10.643,115.857ZM10,115.857L7.429,113L1,113L1,123L10,123L10,115.857Z" style="fill:rgb(20,20,20);"/>
            </g>
            <g transform="matrix(1,0,0,1,0,0.75)">
                <g transform="matrix(1.5,0,0,1.5,-80.25,-187.5)">
                    <path d="M56,131L56,131C56,129.343 57.343,128 59,128C61.618,128 65,128 65,128" style="fill:none;stroke:rgb(20,20,20);stroke-width:1px;"/>
                </g>
                <g transform="matrix(1.5,0,0,1.5,-80.25,-187.5)">
                    <path d="M59,128L59,135C59,136.657 57.657,138 56,138C56,138 56,138 56,138" style="fill:none;stroke:rgb(20,20,20);stroke-width:1px;"/>
                </g>
                <g transform="matrix(1.5,0,0,1.5,-80.25,-187.5)">
                    <path d="M65,128L65,130" style="fill:none;stroke:rgb(20,20,20);stroke-width:1px;"/>
                </g>
                <g transform="matrix(1.5,0,0,1.5,-80.25,-187.5)">
                    <path d="M59,133L64,133" style="fill:none;stroke:rgb(20,20,20);stroke-width:1px;"/>
                </g>
            </g>
        </g>
    </g>
</svg>
