<?xml version="1.0" encoding="UTF-8" standalone="no"?>
<!DOCTYPE svg PUBLIC "-//W3C//DTD SVG 1.1//EN" "http://www.w3.org/Graphics/SVG/1.1/DTD/svg11.dtd">
<svg width="100%" height="100%" viewBox="0 0 16 16" version="1.1" xmlns="http://www.w3.org/2000/svg" xmlns:xlink="http://www.w3.org/1999/xlink" xml:space="preserve" xmlns:serif="http://www.serif.com/" style="fill-rule:evenodd;clip-rule:evenodd;stroke-linecap:round;stroke-linejoin:round;stroke-miterlimit:1.5;">
    <g transform="matrix(1,0,0,1,0,-108)">
        <g id="newfont" transform="matrix(0.666667,0,0,0.666667,0,108)">
            <rect x="0" y="0" width="24" height="24" style="fill:none;"/>
            <g transform="matrix(1.5,0,0,1.5,5.25,-161.25)">
                <path d="M2,113L9,113L9,115" style="fill:none;stroke:rgb(20,20,20);stroke-width:1px;"/>
            </g>
            <g transform="matrix(1.5,0,0,1.5,5.25,-161.25)">
                <path d="M3,113L3,121" style="fill:none;stroke:rgb(20,20,20);stroke-width:1px;"/>
            </g>
            <g transform="matrix(1.5,0,0,1.5,5.25,-161.25)">
                <path d="M2,121L4,121" style="fill:none;stroke:rgb(20,20,20);stroke-width:1px;"/>
            </g>
            <g transform="matrix(1.5,0,0,1.5,5.25,-161.25)">
                <path d="M3,117L7,117" style="fill:none;stroke:rgb(20,20,20);stroke-width:1px;"/>
            </g>
            <g transform="matrix(2,0,0,2.1,1,-235.8)">
                <path d="M10.75,115.857C10.75,115.668 10.671,115.486 10.53,115.352L7.53,112.495C7.39,112.361 7.199,112.286 7,112.286L1,112.286C0.586,112.286 0.25,112.606 0.25,113L0.25,123C0.25,123.394 0.586,123.714 1,123.714L10,123.714C10.414,123.714 10.75,123.394 10.75,123L10.75,115.857ZM10,115.857L7,113L1,113L1,123L10,123L10,115.857Z" style="fill:rgb(20,20,20);"/>
            </g>
            <g transform="matrix(1.5,0,0,1.90909,0.75,-212.318)">
                <path d="M3,112L3,123" style="fill:none;stroke:rgb(20,20,20);stroke-width:0.87px;"/>
            </g>
        </g>
    </g>
</svg>
