<?xml version="1.0" encoding="UTF-8" standalone="no"?>
<!DOCTYPE svg PUBLIC "-//W3C//DTD SVG 1.1//EN" "http://www.w3.org/Graphics/SVG/1.1/DTD/svg11.dtd">
<svg width="100%" height="100%" viewBox="0 0 16 16" version="1.1" xmlns="http://www.w3.org/2000/svg" xmlns:xlink="http://www.w3.org/1999/xlink" xml:space="preserve" xmlns:serif="http://www.serif.com/" style="fill-rule:evenodd;clip-rule:evenodd;stroke-linejoin:round;stroke-miterlimit:2;">
    <g transform="matrix(1,0,0,1,-18,-108)">
        <g id="openfont" transform="matrix(0.666667,0,0,0.666667,18,108)">
            <rect x="0" y="0" width="24" height="24" style="fill:none;"/>
            <clipPath id="_clip1">
                <rect x="0" y="0" width="24" height="24"/>
            </clipPath>
            <g clip-path="url(#_clip1)">
                <g transform="matrix(1.5,0,0,1.5,-27,-162)">
                    <path d="M27.414,111L33,111C33.552,111 34,111.448 34,112L34,123C34,123.552 33.552,124 33,124L19,124C18.448,124 18,123.552 18,123L18,109C18,108.448 18.448,108 19,108L24,108C24.265,108 24.52,108.105 24.707,108.293L27.414,111ZM33,123L33,112L27,112L24,109L19,109L19,123L33,123Z" style="fill:rgb(20,20,20);"/>
                </g>
                <g transform="matrix(1.5,0,0,1.33333,-27,-141.5)">
                    <rect x="19" y="114" width="14" height="9" style="fill:rgb(189,189,189);"/>
                    <path d="M34,114C34,113.379 33.552,112.875 33,112.875L19,112.875C18.448,112.875 18,113.379 18,114L18,123C18,123.621 18.448,124.125 19,124.125L33,124.125C33.552,124.125 34,123.621 34,123L34,114ZM33,114L19,114L19,123L33,123L33,114Z" style="fill:rgb(20,20,20);"/>
                </g>
            </g>
        </g>
    </g>
</svg>
