<?xml version="1.0" encoding="UTF-8" standalone="no"?>
<!DOCTYPE svg PUBLIC "-//W3C//DTD SVG 1.1//EN" "http://www.w3.org/Graphics/SVG/1.1/DTD/svg11.dtd">
<svg width="100%" height="100%" viewBox="0 0 16 16" version="1.1" xmlns="http://www.w3.org/2000/svg" xmlns:xlink="http://www.w3.org/1999/xlink" xml:space="preserve" xmlns:serif="http://www.serif.com/" style="fill-rule:evenodd;clip-rule:evenodd;stroke-linejoin:round;stroke-miterlimit:2;">
    <g transform="matrix(1,0,0,1,-126,-36)">
        <g id="paste" transform="matrix(0.666667,0,0,0.666667,126,36)">
            <rect x="0" y="0" width="24" height="24" style="fill:none;"/>
            <g transform="matrix(1.5,0,0,1.5,-189,-54)">
                <path d="M138,37C138,36.448 137.552,36 137,36L131,36C130.448,36 130,36.448 130,37L130,39C130,39.552 130.448,40 131,40L137,40C137.552,40 138,39.552 138,39L138,37ZM137,37L131,37L131,39L137,39L137,37Z" style="fill:rgb(20,20,20);"/>
            </g>
            <g transform="matrix(1.5,0,0,1.5,-189,-54)">
                <path d="M131,37L131,38L129,38L129,49L137,49L139,47L139,38L137,38L137,37L139,37L139.177,37.016L139.367,37.069L139.539,37.158L139.69,37.276L139.816,37.421L139.912,37.588L139.974,37.774L139.999,37.949L140,38L140,51C140,51.552 139.552,52 139,52L129,52C128.448,52 128,51.552 128,51L128,38L128.016,37.823L128.069,37.633L128.158,37.461L128.276,37.31L128.421,37.184L128.588,37.088L128.774,37.026L128.949,37.001L129,37L131,37ZM139,48.414L137.707,49.707C137.52,49.895 137.265,50 137,50L129,50C129,50 129,51 129,51L139,51L139,48.414Z" style="fill:rgb(20,20,20);"/>
            </g>
        </g>
    </g>
</svg>
