<?xml version="1.0" encoding="UTF-8" standalone="no"?>
<!DOCTYPE svg PUBLIC "-//W3C//DTD SVG 1.1//EN" "http://www.w3.org/Graphics/SVG/1.1/DTD/svg11.dtd">
<svg width="100%" height="100%" viewBox="0 0 24 24" version="1.1" xmlns="http://www.w3.org/2000/svg" xmlns:xlink="http://www.w3.org/1999/xlink" xml:space="preserve" xmlns:serif="http://www.serif.com/" style="fill-rule:evenodd;clip-rule:evenodd;stroke-linejoin:round;stroke-miterlimit:2;">
    <g transform="matrix(1,0,0,1,-72,0)">
        <g id="previewtool" transform="matrix(1,0,0,1,72,0)">
            <rect x="0" y="0" width="24" height="24" style="fill:none;"/>
            <g transform="matrix(3,0,0,3,-240,-24)">
                <path d="M84,9.333C82.528,9.333 81.333,10.528 81.333,12C81.333,13.472 82.528,14.667 84,14.667C85.472,14.667 86.667,13.472 86.667,12C86.667,10.528 85.472,9.333 84,9.333ZM84,10C85.104,10 86,10.896 86,12C86,13.104 85.104,14 84,14C82.896,14 82,13.104 82,12C82,10.896 82.896,10 84,10Z"/>
            </g>
            <g transform="matrix(1,0,0,1,-72,1.1724e-13)">
                <path d="M84,8C81.792,8 80,9.792 80,12C80,14.208 81.792,16 84,16C86.208,16 88,14.208 88,12C88,9.792 86.208,8 84,8ZM84,10C85.104,10 86,10.896 86,12C86,13.104 85.104,14 84,14C82.896,14 82,13.104 82,12C82,10.896 82.896,10 84,10Z"/>
            </g>
            <g transform="matrix(1,0,0,1,-72,0)">
                <path d="M72.336,10.891C71.888,11.562 71.888,12.438 72.336,13.109C72.336,13.109 72.607,13.516 73.008,14.118C75.458,17.793 79.583,20 83.999,20C84,20 84,20 84.001,20C88.417,20 92.542,17.793 94.992,14.118C95.393,13.516 95.664,13.109 95.664,13.109C96.112,12.438 96.112,11.562 95.664,10.891C95.664,10.891 95.393,10.484 94.992,9.882C92.542,6.207 88.417,4 84.001,4C84,4 84,4 83.999,4C79.583,4 75.458,6.207 73.008,9.882C72.607,10.484 72.336,10.891 72.336,10.891ZM74,12C74,12 74.271,11.593 74.672,10.992C76.751,7.873 80.251,6 83.999,6C84,6 84,6 84.001,6C87.749,6 91.249,7.873 93.328,10.992C93.729,11.593 94,12 94,12C94,12 93.729,12.407 93.328,13.008C91.249,16.127 87.749,18 84.001,18C84,18 84,18 83.999,18C80.251,18 76.751,16.127 74.672,13.008C74.271,12.407 74,12 74,12Z"/>
            </g>
        </g>
    </g>
</svg>
