<?xml version="1.0" encoding="UTF-8" standalone="no"?>
<!DOCTYPE svg PUBLIC "-//W3C//DTD SVG 1.1//EN" "http://www.w3.org/Graphics/SVG/1.1/DTD/svg11.dtd">
<svg width="100%" height="100%" viewBox="0 0 16 16" version="1.1" xmlns="http://www.w3.org/2000/svg" xmlns:xlink="http://www.w3.org/1999/xlink" xml:space="preserve" xmlns:serif="http://www.serif.com/" style="fill-rule:evenodd;clip-rule:evenodd;stroke-linejoin:round;stroke-miterlimit:2;">
    <g transform="matrix(1,0,0,1,-36,0)">
        <g id="rectangletool" transform="matrix(0.666667,0,0,0.666667,36,4.44089e-16)">
            <rect x="0" y="0" width="24" height="24" style="fill:none;"/>
            <g transform="matrix(1.63636,0,0,1.22727,-60.6818,2.04545)">
                <path d="M49.917,2C49.917,1.325 49.506,0.778 49,0.778L38,0.778C37.494,0.778 37.083,1.325 37.083,2L37.083,13C37.083,13.675 37.494,14.222 38,14.222L49,14.222C49.506,14.222 49.917,13.675 49.917,13L49.917,2ZM49,2L38,2L38,13L49,13L49,2Z" style="fill:rgb(20,20,20);"/>
            </g>
            <g transform="matrix(1.5,0,0,1.5,16.5,15)">
                <rect x="1" y="1" width="3" height="3" style="fill:rgb(223,147,172);"/>
                <path d="M5,1C5,0.448 4.552,0 4,0L1,0C0.448,0 -0,0.448 0,1L0,4C0,4.552 0.448,5 1,5L4,5C4.552,5 5,4.552 5,4L5,1ZM4,1L1,1L1,4L4,4L4,1Z" style="fill:rgb(117,25,53);"/>
            </g>
        </g>
    </g>
</svg>
