<?xml version="1.0" encoding="UTF-8" standalone="no"?>
<!DOCTYPE svg PUBLIC "-//W3C//DTD SVG 1.1//EN" "http://www.w3.org/Graphics/SVG/1.1/DTD/svg11.dtd">
<svg width="100%" height="100%" viewBox="0 0 16 16" version="1.1" xmlns="http://www.w3.org/2000/svg" xmlns:xlink="http://www.w3.org/1999/xlink" xml:space="preserve" xmlns:serif="http://www.serif.com/" style="fill-rule:evenodd;clip-rule:evenodd;stroke-linecap:round;stroke-linejoin:round;stroke-miterlimit:1.5;">
    <g transform="matrix(1,0,0,1,-72,-90)">
        <g id="reversecurve" transform="matrix(0.666667,0,0,0.666667,72,90)">
            <rect x="0" y="0" width="24" height="24" style="fill:none;"/>
            <clipPath id="_clip1">
                <rect x="0" y="0" width="24" height="24"/>
            </clipPath>
            <g clip-path="url(#_clip1)">
                <g transform="matrix(1.5,0,0,1.5,-108,-135)">
                    <path d="M86,91L73,91L73,105L86,105L86,91ZM79,93.039C79.205,93.013 79.788,93 80,93C82.76,93 85,95.24 85,98C85,100.76 82.76,103 80,103C79.788,103 79.205,102.987 79,102.961L79,93.039Z" style="fill:rgb(189,189,189);"/>
                    <path d="M87,91C87,90.448 86.552,90 86,90L73,90C72.448,90 72,90.448 72,91L72,105C72,105.552 72.448,106 73,106L86,106C86.552,106 87,105.552 87,105L87,91ZM86,91L73,91L73,105L86,105L86,91ZM79,93.039C79.205,93.013 79.788,93 80,93C82.76,93 85,95.24 85,98C85,100.76 82.76,103 80,103C79.788,103 79.205,102.987 79,102.961L79,93.039ZM80,94L80,102C82.208,102 84,100.208 84,98C84,95.792 82.208,94 80,94Z" style="fill:rgb(20,20,20);"/>
                </g>
                <g transform="matrix(1.6875,0,0,1.6875,-124.5,-153.401)">
                    <path d="M80,102C77.792,102 76,100.208 76,98C76,95.792 77.792,94 80,94" style="fill:none;stroke:rgb(20,20,20);stroke-width:0.89px;"/>
                </g>
                <g transform="matrix(1.5,0,0,1.5,-108,-135)">
                    <rect x="79" y="91" width="1" height="14" style="fill:rgb(20,20,20);"/>
                </g>
            </g>
        </g>
    </g>
</svg>
