<?xml version="1.0" encoding="UTF-8" standalone="no"?>
<!DOCTYPE svg PUBLIC "-//W3C//DTD SVG 1.1//EN" "http://www.w3.org/Graphics/SVG/1.1/DTD/svg11.dtd">
<svg width="100%" height="100%" viewBox="0 0 24 24" version="1.1" xmlns="http://www.w3.org/2000/svg" xmlns:xlink="http://www.w3.org/1999/xlink" xml:space="preserve" xmlns:serif="http://www.serif.com/" style="fill-rule:evenodd;clip-rule:evenodd;stroke-linecap:round;stroke-linejoin:round;stroke-miterlimit:1.5;">
    <g transform="matrix(1,0,0,1,-48,-26)">
        <g id="rotateright" transform="matrix(1,0,0,1,48,26)">
            <rect x="0" y="0" width="24" height="24" style="fill:none;"/>
            <g transform="matrix(0.8,0,0,0.8,-37,-18.4)">
                <rect x="50" y="38" width="10" height="10"/>
                <path d="M62.5,38C62.5,36.619 61.381,35.5 60,35.5L50,35.5C48.619,35.5 47.5,36.619 47.5,38L47.5,48C47.5,49.381 48.619,50.5 50,50.5L60,50.5C61.381,50.5 62.5,49.381 62.5,48L62.5,38ZM60,38L50,38L50,48L60,48L60,38Z"/>
            </g>
            <g transform="matrix(1,0,0,1,-47,-28)">
                <path d="M56,32L60,32C63.314,32 66,34.686 66,38L66,42" style="fill:none;stroke:black;stroke-width:2px;"/>
            </g>
            <g transform="matrix(1,0,0,1,-47,-28)">
                <path d="M70,40L66,44L62,40" style="fill:none;stroke:black;stroke-width:2px;"/>
            </g>
        </g>
    </g>
</svg>
