<?xml version="1.0" encoding="UTF-8" standalone="no"?>
<!DOCTYPE svg PUBLIC "-//W3C//DTD SVG 1.1//EN" "http://www.w3.org/Graphics/SVG/1.1/DTD/svg11.dtd">
<svg width="100%" height="100%" viewBox="0 0 16 16" version="1.1" xmlns="http://www.w3.org/2000/svg" xmlns:xlink="http://www.w3.org/1999/xlink" xml:space="preserve" xmlns:serif="http://www.serif.com/" style="fill-rule:evenodd;clip-rule:evenodd;stroke-linecap:round;stroke-linejoin:round;stroke-miterlimit:1.5;">
    <g transform="matrix(1,0,0,1,-36,-18)">
        <g id="rotateright" transform="matrix(0.666667,0,0,0.666667,36,18)">
            <rect x="0" y="0" width="24" height="24" style="fill:none;"/>
            <clipPath id="_clip1">
                <rect x="0" y="0" width="24" height="24"/>
            </clipPath>
            <g clip-path="url(#_clip1)">
                <g transform="matrix(1.5,0,0,1.5,-72,-39)">
                    <rect x="49" y="33" width="6" height="6" style="fill:rgb(138,146,217);"/>
                    <path d="M56,33C56,32.448 55.552,32 55,32L49,32C48.448,32 48,32.448 48,33L48,39C48,39.552 48.448,40 49,40L55,40C55.552,40 56,39.552 56,39L56,33ZM55,33L49,33L49,39L55,39L55,33Z" style="fill:rgb(53,41,214);"/>
                </g>
                <g transform="matrix(1.5,0,0,1.5,-72,-37.5)">
                    <path d="M57.5,33.5L60.5,36.5L63.5,33.5" style="fill:none;stroke:rgb(20,20,20);stroke-width:1px;"/>
                </g>
                <g transform="matrix(1.5,0,0,1.5,-72,-39)">
                    <path d="M60.5,37.5L60.5,33.5C60.5,30.739 58.261,28.5 55.5,28.5L51.5,28.5" style="fill:none;stroke:rgb(20,20,20);stroke-width:1px;"/>
                </g>
            </g>
        </g>
    </g>
</svg>
