<?xml version="1.0" encoding="UTF-8" standalone="no"?>
<!DOCTYPE svg PUBLIC "-//W3C//DTD SVG 1.1//EN" "http://www.w3.org/Graphics/SVG/1.1/DTD/svg11.dtd">
<svg width="100%" height="100%" viewBox="0 0 16 16" version="1.1" xmlns="http://www.w3.org/2000/svg" xmlns:xlink="http://www.w3.org/1999/xlink" xml:space="preserve" xmlns:serif="http://www.serif.com/" style="fill-rule:evenodd;clip-rule:evenodd;stroke-linejoin:round;stroke-miterlimit:2;">
    <g transform="matrix(1,0,0,1,-36,-108)">
        <g id="savefont" transform="matrix(0.666667,0,0,0.666667,36,108)">
            <rect x="0" y="0" width="24" height="24" style="fill:none;"/>
            <clipPath id="_clip1">
                <rect x="0" y="0" width="24" height="24"/>
            </clipPath>
            <g clip-path="url(#_clip1)">
                <g transform="matrix(1.5,0,0,1.5,-54,-162)">
                    <path d="M52,109C52,108.448 51.552,108 51,108L37,108C36.448,108 36,108.448 36,109L36,121C36,121.265 36.105,121.52 36.293,121.707L38.293,123.707C38.48,123.895 38.735,124 39,124L51,124C51.552,124 52,123.552 52,123L52,109ZM51,109L37,109L37,121L39,123L51,123L51,109Z" style="fill:rgb(20,20,20);"/>
                </g>
                <g transform="matrix(1.5,0,0,1.5,-54,-162)">
                    <path d="M40,109L40,111L47.5,111L47.5,109L51,109L51,123L39,123L37,121L37,109L40,109ZM44,114C45.656,114 47,115.344 47,117C47,118.656 45.656,120 44,120C42.344,120 41,118.656 41,117C41,115.344 42.344,114 44,114Z" style="fill:rgb(189,189,189);"/>
                </g>
                <g transform="matrix(1.5,0,0,1.5,-54,-162)">
                    <path d="M48.5,109C48.5,108.448 48.052,108 47.5,108L40,108C39.448,108 39,108.448 39,109L39,111C39,111.552 39.448,112 40,112L47.5,112C48.052,112 48.5,111.552 48.5,111L48.5,109ZM47.5,109L40,109L40,111L47.5,111L47.5,109Z" style="fill:rgb(20,20,20);"/>
                </g>
                <g transform="matrix(2.25,0,0,2.25,-87,-249.75)">
                    <path d="M44,114.333C42.528,114.333 41.333,115.528 41.333,117C41.333,118.472 42.528,119.667 44,119.667C45.472,119.667 46.667,118.472 46.667,117C46.667,115.528 45.472,114.333 44,114.333ZM44,115C45.104,115 46,115.896 46,117C46,118.104 45.104,119 44,119C42.896,119 42,118.104 42,117C42,115.896 42.896,115 44,115Z" style="fill:rgb(20,20,20);"/>
                </g>
            </g>
        </g>
    </g>
</svg>
