<?xml version="1.0" encoding="UTF-8" standalone="no"?>
<!DOCTYPE svg PUBLIC "-//W3C//DTD SVG 1.1//EN" "http://www.w3.org/Graphics/SVG/1.1/DTD/svg11.dtd">
<svg width="100%" height="100%" viewBox="0 0 16 16" version="1.1" xmlns="http://www.w3.org/2000/svg" xmlns:xlink="http://www.w3.org/1999/xlink" xml:space="preserve" xmlns:serif="http://www.serif.com/" style="fill-rule:evenodd;clip-rule:evenodd;stroke-linecap:round;stroke-linejoin:round;stroke-miterlimit:1.5;">
    <g transform="matrix(1,0,0,1,-36,-108)">
        <g id="savefont" transform="matrix(0.666667,0,0,0.666667,36,108)">
            <rect x="0" y="0" width="24" height="24" style="fill:none;"/>
            <clipPath id="_clip1">
                <rect x="0" y="0" width="24" height="24"/>
            </clipPath>
            <g clip-path="url(#_clip1)">
                <g transform="matrix(1.5,0,0,1.5,6.75,-161.25)">
                    <path d="M2,113L9,113L9,115" style="fill:none;stroke:rgb(20,20,20);stroke-width:1px;"/>
                </g>
                <g transform="matrix(1.5,0,0,1.5,6.75,-161.25)">
                    <path d="M3,113L3,121" style="fill:none;stroke:rgb(20,20,20);stroke-width:1px;"/>
                </g>
                <g transform="matrix(1.5,0,0,1.5,6.75,-161.25)">
                    <path d="M2,121L4,121" style="fill:none;stroke:rgb(20,20,20);stroke-width:1px;"/>
                </g>
                <g transform="matrix(1.5,0,0,1.5,6.75,-161.25)">
                    <path d="M3,117L7,117" style="fill:none;stroke:rgb(20,20,20);stroke-width:1px;"/>
                </g>
                <g transform="matrix(1.5,0,0,1.5,-54,-162)">
                    <path d="M52,109C52,108.448 51.552,108 51,108L37,108C36.448,108 36,108.448 36,109L36,121C36,121.265 36.105,121.52 36.293,121.707L38.293,123.707C38.48,123.895 38.735,124 39,124L51,124C51.552,124 52,123.552 52,123L52,109ZM51,109L37,109L37,121L39,123L51,123L51,109Z" style="fill:rgb(20,20,20);"/>
                </g>
                <g transform="matrix(1.5,0,0,1.5,-54,-162)">
                    <path d="M48.5,109C48.5,108.448 48.052,108 47.5,108L40,108C39.448,108 39,108.448 39,109L39,111C39,111.552 39.448,112 40,112L47.5,112C48.052,112 48.5,111.552 48.5,111L48.5,109ZM47.5,109L40,109L40,111L47.5,111L47.5,109Z" style="fill:rgb(20,20,20);"/>
                </g>
                <g transform="matrix(1.5,0,0,1.90909,0.75,-212.318)">
                    <path d="M3,112L3,123" style="fill:none;stroke:rgb(20,20,20);stroke-width:0.87px;"/>
                </g>
            </g>
        </g>
    </g>
</svg>
