<?xml version="1.0" encoding="UTF-8" standalone="no"?>
<!DOCTYPE svg PUBLIC "-//W3C//DTD SVG 1.1//EN" "http://www.w3.org/Graphics/SVG/1.1/DTD/svg11.dtd">
<svg width="100%" height="100%" viewBox="0 0 16 16" version="1.1" xmlns="http://www.w3.org/2000/svg" xmlns:xlink="http://www.w3.org/1999/xlink" xml:space="preserve" xmlns:serif="http://www.serif.com/" style="fill-rule:evenodd;clip-rule:evenodd;stroke-linejoin:round;stroke-miterlimit:2;">
    <g transform="matrix(1,0,0,1,-90,-90)">
        <g id="transformbox" transform="matrix(0.666667,0,0,0.666667,90,90)">
            <rect x="0" y="0" width="24" height="24" style="fill:none;"/>
            <clipPath id="_clip1">
                <rect x="0" y="0" width="24" height="24"/>
            </clipPath>
            <g clip-path="url(#_clip1)">
                <g transform="matrix(1,0,0,1,-89.5,-89.5)">
                    <rect x="91" y="91" width="3" height="3" style="fill:rgb(189,189,189);"/>
                    <path d="M95.5,91C95.5,90.172 94.828,89.5 94,89.5L91,89.5C90.172,89.5 89.5,90.172 89.5,91L89.5,94C89.5,94.828 90.172,95.5 91,95.5L94,95.5C94.828,95.5 95.5,94.828 95.5,94L95.5,91ZM94,91L91,91L91,94L94,94L94,91Z" style="fill:rgb(20,20,20);"/>
                </g>
                <g transform="matrix(1,0,0,1,-71.5,-89.5)">
                    <rect x="91" y="91" width="3" height="3" style="fill:rgb(189,189,189);"/>
                    <path d="M95.5,91C95.5,90.172 94.828,89.5 94,89.5L91,89.5C90.172,89.5 89.5,90.172 89.5,91L89.5,94C89.5,94.828 90.172,95.5 91,95.5L94,95.5C94.828,95.5 95.5,94.828 95.5,94L95.5,91ZM94,91L91,91L91,94L94,94L94,91Z" style="fill:rgb(20,20,20);"/>
                </g>
                <g transform="matrix(1,0,0,1,-71.5,-71.5)">
                    <rect x="91" y="91" width="3" height="3" style="fill:rgb(189,189,189);"/>
                    <path d="M95.5,91C95.5,90.172 94.828,89.5 94,89.5L91,89.5C90.172,89.5 89.5,90.172 89.5,91L89.5,94C89.5,94.828 90.172,95.5 91,95.5L94,95.5C94.828,95.5 95.5,94.828 95.5,94L95.5,91ZM94,91L91,91L91,94L94,94L94,91Z" style="fill:rgb(20,20,20);"/>
                </g>
                <g transform="matrix(1,0,0,1,-89.5,-71.5)">
                    <rect x="91" y="91" width="3" height="3" style="fill:rgb(189,189,189);"/>
                    <path d="M95.5,91C95.5,90.172 94.828,89.5 94,89.5L91,89.5C90.172,89.5 89.5,90.172 89.5,91L89.5,94C89.5,94.828 90.172,95.5 91,95.5L94,95.5C94.828,95.5 95.5,94.828 95.5,94L95.5,91ZM94,91L91,91L91,94L94,94L94,91Z" style="fill:rgb(20,20,20);"/>
                </g>
                <g transform="matrix(2,0,0,2,-184,-184)">
                    <path d="M101.75,95C101.75,94.586 101.414,94.25 101,94.25L95,94.25C94.586,94.25 94.25,94.586 94.25,95L94.25,101C94.25,101.414 94.586,101.75 95,101.75L101,101.75C101.414,101.75 101.75,101.414 101.75,101L101.75,95ZM101,95L95,95L95,101L101,101L101,95Z" style="fill:rgb(20,20,20);"/>
                </g>
                <g transform="matrix(1.5,0,0,1.5,-135,-135)">
                    <rect x="97" y="92" width="2" height="1" style="fill:rgb(189,189,189);"/>
                    <path d="M100,92C100,91.448 99.552,91 99,91L97,91C96.448,91 96,91.448 96,92L96,93C96,93.552 96.448,94 97,94L99,94C99.552,94 100,93.552 100,93L100,92ZM99,92L97,92L97,93L99,93L99,92Z" style="fill:rgb(20,20,20);"/>
                </g>
                <g transform="matrix(1.5,0,0,1.5,-135,-118.5)">
                    <rect x="97" y="92" width="2" height="1" style="fill:rgb(189,189,189);"/>
                    <path d="M100,92C100,91.448 99.552,91 99,91L97,91C96.448,91 96,91.448 96,92L96,93C96,93.552 96.448,94 97,94L99,94C99.552,94 100,93.552 100,93L100,92ZM99,92L97,92L97,93L99,93L99,92Z" style="fill:rgb(20,20,20);"/>
                </g>
                <g transform="matrix(9.18485e-17,1.5,-1.5,9.18485e-17,142.5,-135)">
                    <rect x="97" y="92" width="2" height="1" style="fill:rgb(189,189,189);"/>
                    <path d="M100,92C100,91.448 99.552,91 99,91L97,91C96.448,91 96,91.448 96,92L96,93C96,93.552 96.448,94 97,94L99,94C99.552,94 100,93.552 100,93L100,92ZM99,92L97,92L97,93L99,93L99,92Z" style="fill:rgb(20,20,20);"/>
                </g>
                <g transform="matrix(9.18485e-17,1.5,-1.5,9.18485e-17,159,-135)">
                    <rect x="97" y="92" width="2" height="1" style="fill:rgb(189,189,189);"/>
                    <path d="M100,92C100,91.448 99.552,91 99,91L97,91C96.448,91 96,91.448 96,92L96,93C96,93.552 96.448,94 97,94L99,94C99.552,94 100,93.552 100,93L100,92ZM99,92L97,92L97,93L99,93L99,92Z" style="fill:rgb(20,20,20);"/>
                </g>
            </g>
        </g>
    </g>
</svg>
