<?xml version="1.0" encoding="UTF-8" standalone="no"?>
<!DOCTYPE svg PUBLIC "-//W3C//DTD SVG 1.1//EN" "http://www.w3.org/Graphics/SVG/1.1/DTD/svg11.dtd">
<svg width="100%" height="100%" viewBox="0 0 16 16" version="1.1" xmlns="http://www.w3.org/2000/svg" xmlns:xlink="http://www.w3.org/1999/xlink" xml:space="preserve" xmlns:serif="http://www.serif.com/" style="fill-rule:evenodd;clip-rule:evenodd;stroke-linejoin:round;stroke-miterlimit:2;">
    <g transform="matrix(1,0,0,1,-54,-72)">
        <g id="xor" transform="matrix(0.666667,0,0,0.666667,54,72)">
            <rect x="0" y="0" width="24" height="24" style="fill:none;"/>
            <clipPath id="_clip1">
                <rect x="0" y="0" width="24" height="24"/>
            </clipPath>
            <g clip-path="url(#_clip1)">
                <g transform="matrix(1.5,0,0,1.5,-81,-108)">
                    <path d="M57.083,78C57.56,75.164 60.029,73 63,73C66.311,73 69,75.689 69,79C69,81.971 66.836,84.44 64,84.917L64,87L55,87L55,78L57.083,78ZM57.083,78C57.028,78.325 57,78.659 57,79C57,82.311 59.689,85 63,85C63.341,85 63.675,84.972 64,84.917L64,78L57.083,78Z" style="fill:rgb(108,205,236);"/>
                    <path d="M56.291,77C57.152,74.11 59.832,72 63,72C66.863,72 70,75.137 70,79C70,82.168 67.89,84.848 65,85.709L65,87C65,87.552 64.552,88 64,88L55,88C54.448,88 54,87.552 54,87L54,78C54,77.448 54.448,77 55,77L56.291,77ZM57.083,78C57.56,75.164 60.029,73 63,73C66.311,73 69,75.689 69,79C69,81.971 66.836,84.44 64,84.917L64,87L55,87L55,78L57.083,78ZM57.083,78C57.028,78.325 57,78.659 57,79C57,82.311 59.689,85 63,85C63.341,85 63.675,84.972 64,84.917L64,78L57.083,78ZM63,84L63,79L58,79C58,81.76 60.24,84 63,84Z" style="fill:rgb(14,107,117);"/>
                </g>
            </g>
        </g>
    </g>
</svg>
