<?xml version="1.0" encoding="UTF-8" standalone="no"?>
<!DOCTYPE svg PUBLIC "-//W3C//DTD SVG 1.1//EN" "http://www.w3.org/Graphics/SVG/1.1/DTD/svg11.dtd">
<svg width="100%" height="100%" viewBox="0 0 16 16" version="1.1" xmlns="http://www.w3.org/2000/svg" xmlns:xlink="http://www.w3.org/1999/xlink" xml:space="preserve" xmlns:serif="http://www.serif.com/" style="fill-rule:evenodd;clip-rule:evenodd;stroke-linejoin:round;stroke-miterlimit:2;">
    <g transform="matrix(1,0,0,1,-54,-72)">
        <g id="xor" transform="matrix(0.666667,0,0,0.666667,54,72)">
            <rect x="0" y="0" width="24" height="24" style="fill:none;"/>
            <g transform="matrix(1.5,0,0,1.5,-81,-108)">
                <path d="M57,79C57,82.311 59.689,85 63,85L63,87L55,87L55,79L57,79Z" style="fill:rgb(165,225,255);"/>
                <path d="M58,79C58,78.448 57.552,78 57,78L55,78C54.448,78 54,78.448 54,79L54,87C54,87.552 54.448,88 55,88L63,88C63.552,88 64,87.552 64,87L64,85C64,84.448 63.552,84 63,84C60.24,84 58,81.76 58,79ZM57,79C57,82.311 59.689,85 63,85L63,87L55,87L55,79L57,79Z" style="fill:rgb(14,91,117);"/>
            </g>
            <g transform="matrix(1.5,0,0,1.5,-81,-108)">
                <path d="M58.022,78C58.275,75.199 60.633,73 63.5,73C66.536,73 69,75.464 69,78.5C69,81.367 66.801,83.725 64,83.978L64,78L58.022,78Z" style="fill:rgb(165,225,255);"/>
                <path d="M63,79L58.022,79C57.742,79 57.474,78.882 57.284,78.675C57.095,78.467 57.001,78.19 57.027,77.91C57.325,74.599 60.111,72 63.5,72C67.087,72 70,74.913 70,78.5C70,81.889 67.401,84.675 64.09,84.973C63.81,84.999 63.533,84.905 63.325,84.716C63.118,84.526 63,84.258 63,83.978L63,79ZM58.022,78C58.275,75.199 60.633,73 63.5,73C66.536,73 69,75.464 69,78.5C69,81.367 66.801,83.725 64,83.978L64,78L58.022,78Z" style="fill:rgb(14,91,117);"/>
            </g>
        </g>
    </g>
</svg>
